%TF.GenerationSoftware,KiCad,Pcbnew,9.0.2*%
%TF.CreationDate,2025-05-29T11:38:48+08:00*%
%TF.ProjectId,uart_tool,75617274-5f74-46f6-9f6c-2e6b69636164,rev?*%
%TF.SameCoordinates,Original*%
%TF.FileFunction,Copper,L2,Bot*%
%TF.FilePolarity,Positive*%
%FSLAX46Y46*%
G04 Gerber Fmt 4.6, Leading zero omitted, Abs format (unit mm)*
G04 Created by KiCad (PCBNEW 9.0.2) date 2025-05-29 11:38:48*
%MOMM*%
%LPD*%
G01*
G04 APERTURE LIST*
%TA.AperFunction,ComponentPad*%
%ADD10R,1.700000X1.700000*%
%TD*%
%TA.AperFunction,ComponentPad*%
%ADD11C,1.700000*%
%TD*%
%TA.AperFunction,ComponentPad*%
%ADD12O,4.000000X1.500000*%
%TD*%
%TA.AperFunction,ComponentPad*%
%ADD13R,1.600000X1.600000*%
%TD*%
%TA.AperFunction,ComponentPad*%
%ADD14C,1.600000*%
%TD*%
%TA.AperFunction,ViaPad*%
%ADD15C,0.600000*%
%TD*%
%TA.AperFunction,Conductor*%
%ADD16C,1.000000*%
%TD*%
G04 APERTURE END LIST*
D10*
%TO.P,J1,1,Pin_1*%
%TO.N,/3.3V*%
X177460000Y-87500000D03*
D11*
%TO.P,J1,2,Pin_2*%
%TO.N,/SW_PWR*%
X180000000Y-87500000D03*
%TO.P,J1,3,Pin_3*%
%TO.N,VBUS*%
X182540000Y-87500000D03*
%TD*%
D12*
%TO.P,USB1,5,5*%
%TO.N,GND*%
X194073000Y-101200000D03*
%TO.P,USB1,6,6*%
X194073000Y-89800000D03*
%TD*%
D13*
%TO.P,SW1,1,1*%
%TO.N,/SW_PWR*%
X173499500Y-88000000D03*
D14*
%TO.P,SW1,2,2*%
%TO.N,/IO_CTRL*%
X173500000Y-90000000D03*
%TO.P,SW1,3,3*%
%TO.N,GND*%
X173500000Y-92000000D03*
%TO.P,SW1,4,4*%
%TO.N,/SW_PWR*%
X168500000Y-88000000D03*
%TO.P,SW1,5,5*%
%TO.N,/IO_CTRL*%
X168500000Y-90000000D03*
%TO.P,SW1,6,6*%
%TO.N,GND*%
X168500000Y-92000000D03*
%TD*%
D10*
%TO.P,J3,1,Pin_1*%
%TO.N,VBUS*%
X164160254Y-103999181D03*
D11*
%TO.P,J3,2,Pin_2*%
X161620254Y-103999181D03*
%TO.P,J3,3,Pin_3*%
%TO.N,/3.3V*%
X164160254Y-101459181D03*
%TO.P,J3,4,Pin_4*%
X161620254Y-101459181D03*
%TO.P,J3,5,Pin_5*%
%TO.N,/UART_TX*%
X164160254Y-98919181D03*
%TO.P,J3,6,Pin_6*%
%TO.N,/UART_RX*%
X161620254Y-98919181D03*
%TO.P,J3,7,Pin_7*%
%TO.N,GND*%
X164160254Y-96379181D03*
%TO.P,J3,8,Pin_8*%
%TO.N,/IO_CTRL*%
X161620254Y-96379181D03*
%TO.P,J3,9,Pin_9*%
%TO.N,GND*%
X164160254Y-93839181D03*
%TO.P,J3,10,Pin_10*%
X161620254Y-93839181D03*
%TD*%
D15*
%TO.N,GND*%
X172485254Y-102119181D03*
X169285254Y-102119181D03*
%TD*%
D16*
%TO.N,VBUS*%
X164160254Y-103999181D02*
X161620254Y-103999181D01*
%TO.N,/3.3V*%
X164160254Y-101459181D02*
X161620254Y-101459181D01*
%TO.N,VBUS*%
X179085254Y-90954746D02*
X182540000Y-87500000D01*
X176685254Y-96419181D02*
X179085254Y-94019181D01*
X172385254Y-96419181D02*
X176685254Y-96419181D01*
X179085254Y-94019181D02*
X179085254Y-90954746D01*
X164805254Y-103999181D02*
X172385254Y-96419181D01*
X164160254Y-103999181D02*
X164805254Y-103999181D01*
%TO.N,/3.3V*%
X171000254Y-94619181D02*
X164160254Y-101459181D01*
X177460000Y-92544435D02*
X175385254Y-94619181D01*
X177460000Y-87500000D02*
X177460000Y-92544435D01*
X175385254Y-94619181D02*
X171000254Y-94619181D01*
%TD*%
%TA.AperFunction,Conductor*%
%TO.N,GND*%
G36*
X196442539Y-84020185D02*
G01*
X196488294Y-84072989D01*
X196499500Y-84124500D01*
X196499500Y-89415194D01*
X196495275Y-89447285D01*
X196490500Y-89465103D01*
X196490500Y-101534893D01*
X196495275Y-101552713D01*
X196499500Y-101584805D01*
X196499500Y-106176000D01*
X196479815Y-106243039D01*
X196427011Y-106288794D01*
X196375500Y-106300000D01*
X159324000Y-106300000D01*
X159256961Y-106280315D01*
X159211206Y-106227511D01*
X159200000Y-106176000D01*
X159200000Y-96272894D01*
X160269754Y-96272894D01*
X160269754Y-96485467D01*
X160298483Y-96666858D01*
X160303008Y-96695424D01*
X160348755Y-96836219D01*
X160368698Y-96897595D01*
X160465205Y-97087001D01*
X160590144Y-97258967D01*
X160740467Y-97409290D01*
X160912436Y-97534231D01*
X160921200Y-97538697D01*
X160971996Y-97586672D01*
X160988790Y-97654493D01*
X160966252Y-97720628D01*
X160921200Y-97759665D01*
X160912436Y-97764130D01*
X160740467Y-97889071D01*
X160590144Y-98039394D01*
X160465205Y-98211360D01*
X160368698Y-98400766D01*
X160303007Y-98602941D01*
X160269754Y-98812894D01*
X160269754Y-99025467D01*
X160303007Y-99235420D01*
X160368698Y-99437595D01*
X160465205Y-99627001D01*
X160590144Y-99798967D01*
X160740467Y-99949290D01*
X160912436Y-100074231D01*
X160921200Y-100078697D01*
X160971996Y-100126672D01*
X160988790Y-100194493D01*
X160966252Y-100260628D01*
X160921200Y-100299665D01*
X160912436Y-100304130D01*
X160740467Y-100429071D01*
X160590144Y-100579394D01*
X160465205Y-100751360D01*
X160368698Y-100940766D01*
X160303007Y-101142941D01*
X160281962Y-101275814D01*
X160269754Y-101352894D01*
X160269754Y-101565468D01*
X160270514Y-101570267D01*
X160291275Y-101701349D01*
X160303008Y-101775424D01*
X160366067Y-101969500D01*
X160368698Y-101977595D01*
X160465205Y-102167001D01*
X160590144Y-102338967D01*
X160740467Y-102489290D01*
X160912436Y-102614231D01*
X160921200Y-102618697D01*
X160971996Y-102666672D01*
X160988790Y-102734493D01*
X160966252Y-102800628D01*
X160921200Y-102839665D01*
X160912436Y-102844130D01*
X160740467Y-102969071D01*
X160590144Y-103119394D01*
X160465205Y-103291360D01*
X160368698Y-103480766D01*
X160303007Y-103682941D01*
X160269754Y-103892894D01*
X160269754Y-104105467D01*
X160303007Y-104315420D01*
X160368698Y-104517595D01*
X160465205Y-104707001D01*
X160590144Y-104878967D01*
X160740467Y-105029290D01*
X160912433Y-105154229D01*
X160912435Y-105154230D01*
X160912438Y-105154232D01*
X161101842Y-105250738D01*
X161304011Y-105316427D01*
X161513967Y-105349681D01*
X161513968Y-105349681D01*
X161726540Y-105349681D01*
X161726541Y-105349681D01*
X161936497Y-105316427D01*
X162138666Y-105250738D01*
X162328070Y-105154232D01*
X162414392Y-105091516D01*
X162503988Y-105026422D01*
X162504618Y-105027289D01*
X162523641Y-105018763D01*
X162545519Y-105004704D01*
X162559495Y-105002694D01*
X162563673Y-105000822D01*
X162580454Y-104999681D01*
X162746113Y-104999681D01*
X162813152Y-105019366D01*
X162858907Y-105072170D01*
X162862284Y-105080321D01*
X162866458Y-105091512D01*
X162866459Y-105091513D01*
X162866460Y-105091516D01*
X162952706Y-105206725D01*
X162952709Y-105206728D01*
X163067918Y-105292974D01*
X163067925Y-105292978D01*
X163202771Y-105343272D01*
X163202770Y-105343272D01*
X163209698Y-105344016D01*
X163262381Y-105349681D01*
X165058126Y-105349680D01*
X165117737Y-105343272D01*
X165252585Y-105292977D01*
X165367800Y-105206727D01*
X165454050Y-105091512D01*
X165504345Y-104956664D01*
X165510754Y-104897054D01*
X165510753Y-104759965D01*
X165519397Y-104730523D01*
X165525919Y-104700542D01*
X165529673Y-104695526D01*
X165530437Y-104692926D01*
X165547069Y-104672287D01*
X165552889Y-104666466D01*
X165582393Y-104636963D01*
X165582395Y-104636959D01*
X172547672Y-97671683D01*
X192972633Y-97671683D01*
X192972633Y-97828316D01*
X192989855Y-97959138D01*
X192989856Y-97959143D01*
X192989857Y-97959149D01*
X192989858Y-97959151D01*
X193030395Y-98110441D01*
X193080894Y-98232356D01*
X193080899Y-98232367D01*
X193159207Y-98367999D01*
X193159219Y-98368017D01*
X193184349Y-98400766D01*
X193239546Y-98472699D01*
X193350301Y-98583454D01*
X193350305Y-98583457D01*
X193454982Y-98663780D01*
X193454986Y-98663782D01*
X193454993Y-98663788D01*
X193455000Y-98663792D01*
X193590632Y-98742100D01*
X193590637Y-98742102D01*
X193590640Y-98742104D01*
X193712557Y-98792604D01*
X193863851Y-98833143D01*
X193956251Y-98845307D01*
X193994683Y-98850367D01*
X193994684Y-98850367D01*
X194151317Y-98850367D01*
X194181021Y-98846456D01*
X194282149Y-98833143D01*
X194433443Y-98792604D01*
X194555360Y-98742104D01*
X194691007Y-98663788D01*
X194795699Y-98583454D01*
X194906454Y-98472699D01*
X194986788Y-98368007D01*
X195065104Y-98232360D01*
X195115604Y-98110443D01*
X195156143Y-97959149D01*
X195173367Y-97828316D01*
X195173367Y-97671684D01*
X195156143Y-97540851D01*
X195115604Y-97389557D01*
X195065104Y-97267640D01*
X195065102Y-97267637D01*
X195065100Y-97267632D01*
X194986792Y-97132000D01*
X194986788Y-97131993D01*
X194929212Y-97056960D01*
X194906457Y-97027305D01*
X194906454Y-97027301D01*
X194795699Y-96916546D01*
X194771002Y-96897595D01*
X194691017Y-96836219D01*
X194690999Y-96836207D01*
X194555367Y-96757899D01*
X194555356Y-96757894D01*
X194433441Y-96707395D01*
X194357796Y-96687126D01*
X194282149Y-96666857D01*
X194282143Y-96666856D01*
X194282138Y-96666855D01*
X194151317Y-96649633D01*
X194151316Y-96649633D01*
X193994684Y-96649633D01*
X193994683Y-96649633D01*
X193863861Y-96666855D01*
X193863854Y-96666856D01*
X193863851Y-96666857D01*
X193831876Y-96675424D01*
X193712558Y-96707395D01*
X193590643Y-96757894D01*
X193590632Y-96757899D01*
X193455000Y-96836207D01*
X193454982Y-96836219D01*
X193350305Y-96916542D01*
X193350295Y-96916551D01*
X193239551Y-97027295D01*
X193239542Y-97027305D01*
X193159219Y-97131982D01*
X193159207Y-97132000D01*
X193080899Y-97267632D01*
X193080894Y-97267643D01*
X193042994Y-97359142D01*
X193030396Y-97389557D01*
X192991632Y-97534229D01*
X192989858Y-97540848D01*
X192989855Y-97540861D01*
X192972633Y-97671683D01*
X172547672Y-97671683D01*
X172763355Y-97456000D01*
X172824678Y-97422515D01*
X172851036Y-97419681D01*
X176783797Y-97419681D01*
X176846005Y-97407306D01*
X176935237Y-97389557D01*
X176977090Y-97381232D01*
X177030419Y-97359142D01*
X177159168Y-97305813D01*
X177323036Y-97196320D01*
X177462393Y-97056963D01*
X177462393Y-97056961D01*
X177472601Y-97046754D01*
X177472602Y-97046751D01*
X179862394Y-94656962D01*
X179971886Y-94493095D01*
X180047306Y-94311016D01*
X180085755Y-94117721D01*
X180085755Y-93920640D01*
X180085755Y-93915530D01*
X180085754Y-93915504D01*
X180085754Y-93171683D01*
X192972633Y-93171683D01*
X192972633Y-93328316D01*
X192989855Y-93459138D01*
X192989856Y-93459143D01*
X192989857Y-93459149D01*
X192989858Y-93459151D01*
X193030395Y-93610441D01*
X193080894Y-93732356D01*
X193080899Y-93732367D01*
X193159207Y-93867999D01*
X193159219Y-93868017D01*
X193199599Y-93920640D01*
X193239546Y-93972699D01*
X193350301Y-94083454D01*
X193350305Y-94083457D01*
X193454982Y-94163780D01*
X193454986Y-94163782D01*
X193454993Y-94163788D01*
X193455000Y-94163792D01*
X193590632Y-94242100D01*
X193590637Y-94242102D01*
X193590640Y-94242104D01*
X193712557Y-94292604D01*
X193863851Y-94333143D01*
X193956251Y-94345307D01*
X193994683Y-94350367D01*
X193994684Y-94350367D01*
X194151317Y-94350367D01*
X194181021Y-94346456D01*
X194282149Y-94333143D01*
X194433443Y-94292604D01*
X194555360Y-94242104D01*
X194691007Y-94163788D01*
X194795699Y-94083454D01*
X194906454Y-93972699D01*
X194986788Y-93868007D01*
X195065104Y-93732360D01*
X195115604Y-93610443D01*
X195156143Y-93459149D01*
X195173367Y-93328316D01*
X195173367Y-93171684D01*
X195156143Y-93040851D01*
X195115604Y-92889557D01*
X195065104Y-92767640D01*
X195065102Y-92767637D01*
X195065100Y-92767632D01*
X194986792Y-92632000D01*
X194986788Y-92631993D01*
X194906454Y-92527301D01*
X194795699Y-92416546D01*
X194795694Y-92416542D01*
X194691017Y-92336219D01*
X194690999Y-92336207D01*
X194555367Y-92257899D01*
X194555356Y-92257894D01*
X194433441Y-92207395D01*
X194357796Y-92187126D01*
X194282149Y-92166857D01*
X194282143Y-92166856D01*
X194282138Y-92166855D01*
X194151317Y-92149633D01*
X194151316Y-92149633D01*
X193994684Y-92149633D01*
X193994683Y-92149633D01*
X193863861Y-92166855D01*
X193863854Y-92166856D01*
X193863851Y-92166857D01*
X193831876Y-92175424D01*
X193712558Y-92207395D01*
X193590643Y-92257894D01*
X193590632Y-92257899D01*
X193455000Y-92336207D01*
X193454982Y-92336219D01*
X193350305Y-92416542D01*
X193350295Y-92416551D01*
X193239551Y-92527295D01*
X193239542Y-92527305D01*
X193159219Y-92631982D01*
X193159207Y-92632000D01*
X193080899Y-92767632D01*
X193080894Y-92767643D01*
X193030395Y-92889558D01*
X192989858Y-93040848D01*
X192989855Y-93040861D01*
X192972633Y-93171683D01*
X180085754Y-93171683D01*
X180085754Y-91420528D01*
X180105439Y-91353489D01*
X180122073Y-91332847D01*
X181290341Y-90164579D01*
X182568499Y-88886421D01*
X182629820Y-88852938D01*
X182645291Y-88850657D01*
X182646282Y-88850500D01*
X182646287Y-88850500D01*
X182856243Y-88817246D01*
X183058412Y-88751557D01*
X183247816Y-88655051D01*
X183334138Y-88592335D01*
X183419786Y-88530109D01*
X183419788Y-88530106D01*
X183419792Y-88530104D01*
X183570104Y-88379792D01*
X183570106Y-88379788D01*
X183570109Y-88379786D01*
X183695048Y-88207820D01*
X183695047Y-88207820D01*
X183695051Y-88207816D01*
X183791557Y-88018412D01*
X183857246Y-87816243D01*
X183890500Y-87606287D01*
X183890500Y-87393713D01*
X183857246Y-87183757D01*
X183791557Y-86981588D01*
X183695051Y-86792184D01*
X183695049Y-86792181D01*
X183695048Y-86792179D01*
X183570109Y-86620213D01*
X183419786Y-86469890D01*
X183247820Y-86344951D01*
X183058414Y-86248444D01*
X183058413Y-86248443D01*
X183058412Y-86248443D01*
X182856243Y-86182754D01*
X182856241Y-86182753D01*
X182856240Y-86182753D01*
X182694957Y-86157208D01*
X182646287Y-86149500D01*
X182433713Y-86149500D01*
X182385042Y-86157208D01*
X182223760Y-86182753D01*
X182021585Y-86248444D01*
X181832179Y-86344951D01*
X181660213Y-86469890D01*
X181509890Y-86620213D01*
X181384949Y-86792182D01*
X181380484Y-86800946D01*
X181332509Y-86851742D01*
X181264688Y-86868536D01*
X181198553Y-86845998D01*
X181159516Y-86800946D01*
X181155050Y-86792182D01*
X181030109Y-86620213D01*
X180879786Y-86469890D01*
X180707820Y-86344951D01*
X180518414Y-86248444D01*
X180518413Y-86248443D01*
X180518412Y-86248443D01*
X180316243Y-86182754D01*
X180316241Y-86182753D01*
X180316240Y-86182753D01*
X180154957Y-86157208D01*
X180106287Y-86149500D01*
X179893713Y-86149500D01*
X179845042Y-86157208D01*
X179683760Y-86182753D01*
X179481585Y-86248444D01*
X179292179Y-86344951D01*
X179120215Y-86469889D01*
X179006673Y-86583431D01*
X178945350Y-86616915D01*
X178875658Y-86611931D01*
X178819725Y-86570059D01*
X178802810Y-86539082D01*
X178753797Y-86407671D01*
X178753793Y-86407664D01*
X178667547Y-86292455D01*
X178667544Y-86292452D01*
X178552335Y-86206206D01*
X178552328Y-86206202D01*
X178417482Y-86155908D01*
X178417483Y-86155908D01*
X178357883Y-86149501D01*
X178357881Y-86149500D01*
X178357873Y-86149500D01*
X178357864Y-86149500D01*
X176562129Y-86149500D01*
X176562123Y-86149501D01*
X176502516Y-86155908D01*
X176367671Y-86206202D01*
X176367664Y-86206206D01*
X176252455Y-86292452D01*
X176252452Y-86292455D01*
X176166206Y-86407664D01*
X176166202Y-86407671D01*
X176115908Y-86542517D01*
X176109501Y-86602116D01*
X176109500Y-86602135D01*
X176109500Y-88397870D01*
X176109501Y-88397876D01*
X176115908Y-88457483D01*
X176166202Y-88592328D01*
X176166206Y-88592335D01*
X176252452Y-88707544D01*
X176252455Y-88707547D01*
X176367665Y-88793794D01*
X176367667Y-88793794D01*
X176367669Y-88793796D01*
X176378830Y-88797958D01*
X176434764Y-88839826D01*
X176459184Y-88905289D01*
X176459500Y-88914141D01*
X176459500Y-92078653D01*
X176439815Y-92145692D01*
X176423181Y-92166334D01*
X175007153Y-93582362D01*
X174945830Y-93615847D01*
X174919472Y-93618681D01*
X170901709Y-93618681D01*
X170805066Y-93637905D01*
X170708421Y-93657128D01*
X170708415Y-93657130D01*
X170655088Y-93679218D01*
X170655088Y-93679219D01*
X170612172Y-93696995D01*
X170526338Y-93732549D01*
X170526337Y-93732549D01*
X170403299Y-93814760D01*
X170403300Y-93814761D01*
X170362472Y-93842040D01*
X165651010Y-98553502D01*
X165589687Y-98586987D01*
X165519995Y-98582003D01*
X165464062Y-98540131D01*
X165445398Y-98504139D01*
X165435184Y-98472704D01*
X165411811Y-98400769D01*
X165315305Y-98211365D01*
X165315303Y-98211362D01*
X165315302Y-98211360D01*
X165190363Y-98039394D01*
X165040040Y-97889071D01*
X164868074Y-97764132D01*
X164678668Y-97667625D01*
X164678667Y-97667624D01*
X164678666Y-97667624D01*
X164476497Y-97601935D01*
X164476495Y-97601934D01*
X164476494Y-97601934D01*
X164315211Y-97576389D01*
X164266541Y-97568681D01*
X164053967Y-97568681D01*
X164005296Y-97576389D01*
X163844014Y-97601934D01*
X163641839Y-97667625D01*
X163452433Y-97764132D01*
X163280467Y-97889071D01*
X163130144Y-98039394D01*
X163005203Y-98211363D01*
X163000738Y-98220127D01*
X162952763Y-98270923D01*
X162884942Y-98287717D01*
X162818807Y-98265179D01*
X162779770Y-98220127D01*
X162775304Y-98211363D01*
X162650363Y-98039394D01*
X162500040Y-97889071D01*
X162328074Y-97764132D01*
X162327369Y-97763772D01*
X162319308Y-97759666D01*
X162268513Y-97711693D01*
X162251717Y-97643873D01*
X162274253Y-97577737D01*
X162319308Y-97538696D01*
X162328070Y-97534232D01*
X162435748Y-97456000D01*
X162500040Y-97409290D01*
X162500042Y-97409287D01*
X162500046Y-97409285D01*
X162650358Y-97258973D01*
X162650360Y-97258969D01*
X162650363Y-97258967D01*
X162775302Y-97087001D01*
X162775301Y-97087001D01*
X162775305Y-97086997D01*
X162871811Y-96897593D01*
X162937500Y-96695424D01*
X162970754Y-96485468D01*
X162970754Y-96272894D01*
X162937500Y-96062938D01*
X162871811Y-95860769D01*
X162775305Y-95671365D01*
X162775303Y-95671362D01*
X162775302Y-95671360D01*
X162650363Y-95499394D01*
X162500040Y-95349071D01*
X162328074Y-95224132D01*
X162138668Y-95127625D01*
X162138667Y-95127624D01*
X162138666Y-95127624D01*
X161936497Y-95061935D01*
X161936495Y-95061934D01*
X161936494Y-95061934D01*
X161775211Y-95036389D01*
X161726541Y-95028681D01*
X161513967Y-95028681D01*
X161465296Y-95036389D01*
X161304014Y-95061934D01*
X161101839Y-95127625D01*
X160912433Y-95224132D01*
X160740467Y-95349071D01*
X160590144Y-95499394D01*
X160465205Y-95671360D01*
X160368698Y-95860766D01*
X160303007Y-96062941D01*
X160269754Y-96272894D01*
X159200000Y-96272894D01*
X159200000Y-87897648D01*
X167199500Y-87897648D01*
X167199500Y-88102351D01*
X167231522Y-88304534D01*
X167294781Y-88499223D01*
X167342221Y-88592328D01*
X167374180Y-88655051D01*
X167387715Y-88681613D01*
X167508028Y-88847213D01*
X167573134Y-88912319D01*
X167606619Y-88973642D01*
X167601635Y-89043334D01*
X167573134Y-89087681D01*
X167508032Y-89152782D01*
X167508028Y-89152786D01*
X167387715Y-89318386D01*
X167294781Y-89500776D01*
X167231522Y-89695465D01*
X167199500Y-89897648D01*
X167199500Y-90102351D01*
X167231522Y-90304534D01*
X167294781Y-90499223D01*
X167387715Y-90681613D01*
X167508028Y-90847213D01*
X167652786Y-90991971D01*
X167807749Y-91104556D01*
X167818390Y-91112287D01*
X167934607Y-91171503D01*
X168000776Y-91205218D01*
X168000778Y-91205218D01*
X168000781Y-91205220D01*
X168105137Y-91239127D01*
X168195465Y-91268477D01*
X168296557Y-91284488D01*
X168397648Y-91300500D01*
X168397649Y-91300500D01*
X168602351Y-91300500D01*
X168602352Y-91300500D01*
X168804534Y-91268477D01*
X168999219Y-91205220D01*
X169181610Y-91112287D01*
X169274590Y-91044732D01*
X169347213Y-90991971D01*
X169347215Y-90991968D01*
X169347219Y-90991966D01*
X169491966Y-90847219D01*
X169491968Y-90847215D01*
X169491971Y-90847213D01*
X169544732Y-90774590D01*
X169612287Y-90681610D01*
X169705220Y-90499219D01*
X169768477Y-90304534D01*
X169800500Y-90102352D01*
X169800500Y-89897648D01*
X169768477Y-89695466D01*
X169705220Y-89500781D01*
X169705218Y-89500778D01*
X169705218Y-89500776D01*
X169661611Y-89415194D01*
X169612287Y-89318390D01*
X169591535Y-89289827D01*
X169491971Y-89152786D01*
X169426866Y-89087681D01*
X169393381Y-89026358D01*
X169398365Y-88956666D01*
X169426866Y-88912319D01*
X169452762Y-88886423D01*
X169491966Y-88847219D01*
X169491968Y-88847215D01*
X169491971Y-88847213D01*
X169561469Y-88751555D01*
X169612287Y-88681610D01*
X169705220Y-88499219D01*
X169768477Y-88304534D01*
X169800500Y-88102352D01*
X169800500Y-87897648D01*
X169768477Y-87695466D01*
X169705220Y-87500781D01*
X169705218Y-87500778D01*
X169705218Y-87500776D01*
X169612287Y-87318390D01*
X169542032Y-87221691D01*
X169542031Y-87221688D01*
X169491971Y-87152787D01*
X169491967Y-87152782D01*
X169491320Y-87152135D01*
X172199000Y-87152135D01*
X172199000Y-88847870D01*
X172199001Y-88847876D01*
X172205408Y-88907483D01*
X172255702Y-89042328D01*
X172255706Y-89042335D01*
X172289653Y-89087681D01*
X172341954Y-89157546D01*
X172350843Y-89164200D01*
X172392712Y-89220135D01*
X172397694Y-89289827D01*
X172387014Y-89319760D01*
X172294782Y-89500776D01*
X172231522Y-89695465D01*
X172199500Y-89897648D01*
X172199500Y-90102351D01*
X172231522Y-90304534D01*
X172294781Y-90499223D01*
X172387715Y-90681613D01*
X172508028Y-90847213D01*
X172652786Y-90991971D01*
X172807749Y-91104556D01*
X172818390Y-91112287D01*
X172934607Y-91171503D01*
X173000776Y-91205218D01*
X173000778Y-91205218D01*
X173000781Y-91205220D01*
X173105137Y-91239127D01*
X173195465Y-91268477D01*
X173296557Y-91284488D01*
X173397648Y-91300500D01*
X173397649Y-91300500D01*
X173602351Y-91300500D01*
X173602352Y-91300500D01*
X173804534Y-91268477D01*
X173999219Y-91205220D01*
X174181610Y-91112287D01*
X174274590Y-91044732D01*
X174347213Y-90991971D01*
X174347215Y-90991968D01*
X174347219Y-90991966D01*
X174491966Y-90847219D01*
X174491968Y-90847215D01*
X174491971Y-90847213D01*
X174544732Y-90774590D01*
X174612287Y-90681610D01*
X174705220Y-90499219D01*
X174768477Y-90304534D01*
X174800500Y-90102352D01*
X174800500Y-89897648D01*
X174768477Y-89695466D01*
X174705220Y-89500781D01*
X174705218Y-89500778D01*
X174705218Y-89500776D01*
X174661611Y-89415194D01*
X174612707Y-89319215D01*
X174599812Y-89250549D01*
X174626088Y-89185809D01*
X174648883Y-89163656D01*
X174657046Y-89157546D01*
X174743296Y-89042331D01*
X174793591Y-88907483D01*
X174800000Y-88847873D01*
X174799999Y-87152128D01*
X174793591Y-87092517D01*
X174743296Y-86957669D01*
X174743295Y-86957668D01*
X174743293Y-86957664D01*
X174657047Y-86842455D01*
X174657044Y-86842452D01*
X174541835Y-86756206D01*
X174541828Y-86756202D01*
X174406982Y-86705908D01*
X174406983Y-86705908D01*
X174347383Y-86699501D01*
X174347381Y-86699500D01*
X174347373Y-86699500D01*
X174347364Y-86699500D01*
X172651629Y-86699500D01*
X172651623Y-86699501D01*
X172592016Y-86705908D01*
X172457171Y-86756202D01*
X172457164Y-86756206D01*
X172341955Y-86842452D01*
X172341952Y-86842455D01*
X172255706Y-86957664D01*
X172255702Y-86957671D01*
X172205408Y-87092517D01*
X172199001Y-87152116D01*
X172199001Y-87152123D01*
X172199000Y-87152135D01*
X169491320Y-87152135D01*
X169347213Y-87008028D01*
X169181613Y-86887715D01*
X169181612Y-86887714D01*
X169181610Y-86887713D01*
X169099740Y-86845998D01*
X168999223Y-86794781D01*
X168804534Y-86731522D01*
X168629995Y-86703878D01*
X168602352Y-86699500D01*
X168397648Y-86699500D01*
X168373329Y-86703351D01*
X168195465Y-86731522D01*
X168000776Y-86794781D01*
X167818386Y-86887715D01*
X167652786Y-87008028D01*
X167508028Y-87152786D01*
X167387715Y-87318386D01*
X167294781Y-87500776D01*
X167231522Y-87695465D01*
X167199500Y-87897648D01*
X159200000Y-87897648D01*
X159200000Y-84124500D01*
X159219685Y-84057461D01*
X159272489Y-84011706D01*
X159324000Y-84000500D01*
X196375500Y-84000500D01*
X196442539Y-84020185D01*
G37*
%TD.AperFunction*%
%TD*%
M02*
