M48
; DRILL file {KiCad 9.0.2} date 2025-05-29T11:39:09+0800
; FORMAT={-:-/ absolute / metric / decimal}
; #@! TF.CreationDate,2025-05-29T11:39:09+08:00
; #@! TF.GenerationSoftware,Kicad,Pcbnew,9.0.2
; #@! TF.FileFunction,Plated,1,2,PTH
FMAT,2
METRIC
; #@! TA.AperFunction,Plated,PTH,ViaDrill
T1C0.300
; #@! TA.AperFunction,Plated,PTH,ComponentDrill
T2C1.000
%
G90
G05
T1
X169.285Y-102.119
X172.485Y-102.119
T2
X161.62Y-93.839
X161.62Y-96.379
X161.62Y-98.919
X161.62Y-101.459
X161.62Y-103.999
X164.16Y-93.839
X164.16Y-96.379
X164.16Y-98.919
X164.16Y-101.459
X164.16Y-103.999
X168.5Y-88.0
X168.5Y-90.0
X168.5Y-92.0
X173.499Y-88.0
X173.5Y-90.0
X173.5Y-92.0
X177.46Y-87.5
X180.0Y-87.5
X182.54Y-87.5
T2
G00X193.223Y-89.8
M15
G01X194.923Y-89.8
M16
G05
G00X193.223Y-101.2
M15
G01X194.923Y-101.2
M16
G05
M30
