%TF.GenerationSoftware,KiCad,Pcbnew,9.0.2*%
%TF.CreationDate,2025-05-29T11:38:48+08:00*%
%TF.ProjectId,uart_tool,75617274-5f74-46f6-9f6c-2e6b69636164,rev?*%
%TF.SameCoordinates,Original*%
%TF.FileFunction,Paste,Top*%
%TF.FilePolarity,Positive*%
%FSLAX46Y46*%
G04 Gerber Fmt 4.6, Leading zero omitted, Abs format (unit mm)*
G04 Created by KiCad (PCBNEW 9.0.2) date 2025-05-29 11:38:48*
%MOMM*%
%LPD*%
G01*
G04 APERTURE LIST*
G04 Aperture macros list*
%AMRoundRect*
0 Rectangle with rounded corners*
0 $1 Rounding radius*
0 $2 $3 $4 $5 $6 $7 $8 $9 X,Y pos of 4 corners*
0 Add a 4 corners polygon primitive as box body*
4,1,4,$2,$3,$4,$5,$6,$7,$8,$9,$2,$3,0*
0 Add four circle primitives for the rounded corners*
1,1,$1+$1,$2,$3*
1,1,$1+$1,$4,$5*
1,1,$1+$1,$6,$7*
1,1,$1+$1,$8,$9*
0 Add four rect primitives between the rounded corners*
20,1,$1+$1,$2,$3,$4,$5,0*
20,1,$1+$1,$4,$5,$6,$7,0*
20,1,$1+$1,$6,$7,$8,$9,0*
20,1,$1+$1,$8,$9,$2,$3,0*%
G04 Aperture macros list end*
%ADD10C,0.000000*%
%ADD11RoundRect,0.237500X-0.237500X0.250000X-0.237500X-0.250000X0.237500X-0.250000X0.237500X0.250000X0*%
%ADD12RoundRect,0.237500X-0.287500X-0.237500X0.287500X-0.237500X0.287500X0.237500X-0.287500X0.237500X0*%
%ADD13RoundRect,0.237500X-0.300000X-0.237500X0.300000X-0.237500X0.300000X0.237500X-0.300000X0.237500X0*%
%ADD14RoundRect,0.237500X0.237500X-0.250000X0.237500X0.250000X-0.237500X0.250000X-0.237500X-0.250000X0*%
%ADD15RoundRect,0.375000X0.625000X0.375000X-0.625000X0.375000X-0.625000X-0.375000X0.625000X-0.375000X0*%
%ADD16RoundRect,0.500000X0.500000X1.400000X-0.500000X1.400000X-0.500000X-1.400000X0.500000X-1.400000X0*%
%ADD17RoundRect,0.237500X0.237500X-0.300000X0.237500X0.300000X-0.237500X0.300000X-0.237500X-0.300000X0*%
%ADD18RoundRect,0.237500X0.250000X0.237500X-0.250000X0.237500X-0.250000X-0.237500X0.250000X-0.237500X0*%
%ADD19R,2.500000X1.200000*%
%ADD20RoundRect,0.150000X0.675000X0.150000X-0.675000X0.150000X-0.675000X-0.150000X0.675000X-0.150000X0*%
%ADD21RoundRect,0.237500X0.237500X-0.287500X0.237500X0.287500X-0.237500X0.287500X-0.237500X-0.287500X0*%
G04 APERTURE END LIST*
D10*
%TO.C,USB1*%
G36*
X192523000Y-92599500D02*
G01*
X190023000Y-92599500D01*
X190023000Y-91399500D01*
X192523000Y-91399500D01*
X192523000Y-92599500D01*
G37*
G36*
X192523000Y-95099500D02*
G01*
X190023000Y-95099500D01*
X190023000Y-93899000D01*
X192523000Y-93899000D01*
X192523000Y-95099500D01*
G37*
G36*
X192523000Y-97099000D02*
G01*
X190023000Y-97099000D01*
X190023000Y-95899500D01*
X192523000Y-95899500D01*
X192523000Y-97099000D01*
G37*
G36*
X192523000Y-99599500D02*
G01*
X190023000Y-99599500D01*
X190023000Y-98399500D01*
X192523000Y-98399500D01*
X192523000Y-99599500D01*
G37*
G36*
X195360500Y-89051000D02*
G01*
X195397500Y-89054000D01*
X195435000Y-89058500D01*
X195471500Y-89065000D01*
X195508000Y-89073500D01*
X195544000Y-89083500D01*
X195579500Y-89095500D01*
X195614500Y-89109000D01*
X195648500Y-89124500D01*
X195682000Y-89141500D01*
X195714000Y-89160000D01*
X195745500Y-89180500D01*
X195776000Y-89202000D01*
X195805000Y-89225500D01*
X195833000Y-89250500D01*
X195860000Y-89276500D01*
X195885500Y-89304000D01*
X195909500Y-89332500D01*
X195932000Y-89362500D01*
X195953000Y-89393000D01*
X195972500Y-89425000D01*
X195990500Y-89458000D01*
X196006500Y-89491500D01*
X196021000Y-89526000D01*
X196034000Y-89561500D01*
X196045000Y-89597000D01*
X196054500Y-89633000D01*
X196061500Y-89670000D01*
X196067500Y-89707000D01*
X196071000Y-89744000D01*
X196073000Y-89781500D01*
X196073000Y-89819000D01*
X196071000Y-89856000D01*
X196067500Y-89893500D01*
X196061500Y-89930500D01*
X196054500Y-89967000D01*
X196045000Y-90003000D01*
X196034000Y-90039000D01*
X196021000Y-90074000D01*
X196006500Y-90108500D01*
X195990500Y-90142500D01*
X195972500Y-90175000D01*
X195953000Y-90207000D01*
X195932000Y-90238000D01*
X195909500Y-90267500D01*
X195885500Y-90296500D01*
X195860000Y-90324000D01*
X195833000Y-90350000D01*
X195805000Y-90374500D01*
X195776000Y-90398000D01*
X195745500Y-90420000D01*
X195714000Y-90440000D01*
X195682000Y-90459000D01*
X195648500Y-90476000D01*
X195614500Y-90491000D01*
X195579500Y-90505000D01*
X195544000Y-90517000D01*
X195508000Y-90527000D01*
X195471500Y-90535500D01*
X195435000Y-90541500D01*
X195397500Y-90546500D01*
X195360500Y-90549000D01*
X195323000Y-90550000D01*
X192823000Y-90550000D01*
X192785500Y-90549000D01*
X192748500Y-90546500D01*
X192711500Y-90541500D01*
X192674500Y-90535500D01*
X192638000Y-90527000D01*
X192602000Y-90517000D01*
X192566500Y-90505000D01*
X192531500Y-90491000D01*
X192497500Y-90476000D01*
X192464500Y-90459000D01*
X192432000Y-90440000D01*
X192400500Y-90420000D01*
X192370000Y-90398000D01*
X192341000Y-90374500D01*
X192313000Y-90350000D01*
X192286000Y-90324000D01*
X192260500Y-90296500D01*
X192236500Y-90267500D01*
X192214000Y-90238000D01*
X192193000Y-90207000D01*
X192173500Y-90175000D01*
X192155500Y-90142500D01*
X192139500Y-90108500D01*
X192125000Y-90074000D01*
X192112000Y-90039000D01*
X192101000Y-90003000D01*
X192092000Y-89967000D01*
X192084500Y-89930500D01*
X192079000Y-89893500D01*
X192075000Y-89856000D01*
X192073500Y-89819000D01*
X192073500Y-89781500D01*
X192075000Y-89744000D01*
X192079000Y-89707000D01*
X192084500Y-89670000D01*
X192092000Y-89633000D01*
X192101000Y-89597000D01*
X192112000Y-89561500D01*
X192125000Y-89526000D01*
X192139500Y-89491500D01*
X192155500Y-89458000D01*
X192173500Y-89425000D01*
X192193000Y-89393000D01*
X192214000Y-89362500D01*
X192236500Y-89332500D01*
X192260500Y-89304000D01*
X192286000Y-89276500D01*
X192313000Y-89250500D01*
X192341000Y-89225500D01*
X192370000Y-89202000D01*
X192400500Y-89180500D01*
X192432000Y-89160000D01*
X192464500Y-89141500D01*
X192497500Y-89124500D01*
X192531500Y-89109000D01*
X192566500Y-89095500D01*
X192602000Y-89083500D01*
X192638000Y-89073500D01*
X192674500Y-89065000D01*
X192711500Y-89058500D01*
X192748500Y-89054000D01*
X192785500Y-89051000D01*
X192823000Y-89050000D01*
X195323000Y-89050000D01*
X195360500Y-89051000D01*
G37*
G36*
X195360500Y-100451000D02*
G01*
X195397500Y-100453500D01*
X195435000Y-100458500D01*
X195471500Y-100464500D01*
X195508000Y-100473000D01*
X195544000Y-100483000D01*
X195579500Y-100495000D01*
X195614500Y-100509000D01*
X195648500Y-100524000D01*
X195682000Y-100541000D01*
X195714000Y-100560000D01*
X195745500Y-100580000D01*
X195776000Y-100602000D01*
X195805000Y-100625500D01*
X195833000Y-100650000D01*
X195860000Y-100676000D01*
X195885500Y-100703500D01*
X195909500Y-100732500D01*
X195932000Y-100762000D01*
X195953000Y-100793000D01*
X195972500Y-100825000D01*
X195990500Y-100857500D01*
X196006500Y-100891500D01*
X196021000Y-100926000D01*
X196034000Y-100961000D01*
X196045000Y-100997000D01*
X196054500Y-101033000D01*
X196061500Y-101069500D01*
X196067500Y-101106500D01*
X196071000Y-101144000D01*
X196073000Y-101181000D01*
X196073000Y-101218500D01*
X196071000Y-101256000D01*
X196067500Y-101293000D01*
X196061500Y-101330000D01*
X196054500Y-101367000D01*
X196045000Y-101403000D01*
X196034000Y-101438500D01*
X196021000Y-101474000D01*
X196006500Y-101508500D01*
X195990500Y-101542000D01*
X195972500Y-101575000D01*
X195953000Y-101607000D01*
X195932000Y-101637500D01*
X195909500Y-101667500D01*
X195885500Y-101696000D01*
X195860000Y-101723500D01*
X195833000Y-101749500D01*
X195805000Y-101774500D01*
X195776000Y-101798000D01*
X195745500Y-101819500D01*
X195714000Y-101840000D01*
X195682000Y-101858500D01*
X195648500Y-101875500D01*
X195614500Y-101891000D01*
X195579500Y-101904500D01*
X195544000Y-101916500D01*
X195508000Y-101926500D01*
X195471500Y-101935000D01*
X195435000Y-101941500D01*
X195397500Y-101946000D01*
X195360500Y-101949000D01*
X195323000Y-101950000D01*
X192823000Y-101950000D01*
X192785500Y-101949000D01*
X192748500Y-101946000D01*
X192711500Y-101941500D01*
X192674500Y-101935000D01*
X192638000Y-101926500D01*
X192602000Y-101916500D01*
X192566500Y-101904500D01*
X192531500Y-101891000D01*
X192497500Y-101875500D01*
X192464500Y-101858500D01*
X192432000Y-101840000D01*
X192400500Y-101819500D01*
X192370000Y-101798000D01*
X192341000Y-101774500D01*
X192313000Y-101749500D01*
X192286000Y-101723500D01*
X192260500Y-101696000D01*
X192236500Y-101667500D01*
X192214000Y-101637500D01*
X192193000Y-101607000D01*
X192173500Y-101575000D01*
X192155500Y-101542000D01*
X192139500Y-101508500D01*
X192125000Y-101474000D01*
X192112000Y-101438500D01*
X192101000Y-101403000D01*
X192092000Y-101367000D01*
X192084500Y-101330000D01*
X192079000Y-101293000D01*
X192075000Y-101256000D01*
X192073500Y-101218500D01*
X192073500Y-101181000D01*
X192075000Y-101144000D01*
X192079000Y-101106500D01*
X192084500Y-101069500D01*
X192092000Y-101033000D01*
X192101000Y-100997000D01*
X192112000Y-100961000D01*
X192125000Y-100926000D01*
X192139500Y-100891500D01*
X192155500Y-100857500D01*
X192173500Y-100825000D01*
X192193000Y-100793000D01*
X192214000Y-100762000D01*
X192236500Y-100732500D01*
X192260500Y-100703500D01*
X192286000Y-100676000D01*
X192313000Y-100650000D01*
X192341000Y-100625500D01*
X192370000Y-100602000D01*
X192400500Y-100580000D01*
X192432000Y-100560000D01*
X192464500Y-100541000D01*
X192497500Y-100524000D01*
X192531500Y-100509000D01*
X192566500Y-100495000D01*
X192602000Y-100483000D01*
X192638000Y-100473000D01*
X192674500Y-100464500D01*
X192711500Y-100458500D01*
X192748500Y-100453500D01*
X192785500Y-100451000D01*
X192823000Y-100450000D01*
X195323000Y-100450000D01*
X195360500Y-100451000D01*
G37*
%TD*%
D11*
%TO.C,R4*%
X176100000Y-97612500D03*
X176100000Y-95787500D03*
%TD*%
D12*
%TO.C,D4*%
X168625000Y-95500000D03*
X170375000Y-95500000D03*
%TD*%
%TO.C,D3*%
X168625000Y-100500000D03*
X170375000Y-100500000D03*
%TD*%
D13*
%TO.C,C3*%
X176137500Y-103500000D03*
X177862500Y-103500000D03*
%TD*%
D14*
%TO.C,R1*%
X185500000Y-88412500D03*
X185500000Y-86587500D03*
%TD*%
D15*
%TO.C,U1*%
X185512500Y-96300000D03*
X185512500Y-94000000D03*
D16*
X179212500Y-94000000D03*
D15*
X185512500Y-91700000D03*
%TD*%
D17*
%TO.C,C2*%
X176500000Y-92862500D03*
X176500000Y-91137500D03*
%TD*%
D18*
%TO.C,R3*%
X177912500Y-101500000D03*
X176087500Y-101500000D03*
%TD*%
D17*
%TO.C,C1*%
X188200000Y-92862500D03*
X188200000Y-91137500D03*
%TD*%
D18*
%TO.C,R2*%
X177912500Y-99500000D03*
X176087500Y-99500000D03*
%TD*%
D12*
%TO.C,D2*%
X168625000Y-98000000D03*
X170375000Y-98000000D03*
%TD*%
D19*
%TO.C,USB1*%
X191273000Y-92000000D03*
X191273000Y-94500000D03*
X191273000Y-96500000D03*
X191273000Y-99000000D03*
%TD*%
D20*
%TO.C,U2*%
X185625000Y-103405000D03*
X185625000Y-102135000D03*
X185625000Y-100865000D03*
X185625000Y-99595000D03*
X180375000Y-99595000D03*
X180375000Y-100865000D03*
X180375000Y-102135000D03*
X180375000Y-103405000D03*
%TD*%
D21*
%TO.C,D1*%
X187500000Y-88375000D03*
X187500000Y-86625000D03*
%TD*%
M02*
