%TF.GenerationSoftware,KiCad,Pcbnew,9.0.2*%
%TF.CreationDate,2025-05-29T11:38:48+08:00*%
%TF.ProjectId,uart_tool,75617274-5f74-46f6-9f6c-2e6b69636164,rev?*%
%TF.SameCoordinates,Original*%
%TF.FileFunction,Soldermask,Top*%
%TF.FilePolarity,Negative*%
%FSLAX46Y46*%
G04 Gerber Fmt 4.6, Leading zero omitted, Abs format (unit mm)*
G04 Created by KiCad (PCBNEW 9.0.2) date 2025-05-29 11:38:48*
%MOMM*%
%LPD*%
G01*
G04 APERTURE LIST*
G04 Aperture macros list*
%AMRoundRect*
0 Rectangle with rounded corners*
0 $1 Rounding radius*
0 $2 $3 $4 $5 $6 $7 $8 $9 X,Y pos of 4 corners*
0 Add a 4 corners polygon primitive as box body*
4,1,4,$2,$3,$4,$5,$6,$7,$8,$9,$2,$3,0*
0 Add four circle primitives for the rounded corners*
1,1,$1+$1,$2,$3*
1,1,$1+$1,$4,$5*
1,1,$1+$1,$6,$7*
1,1,$1+$1,$8,$9*
0 Add four rect primitives between the rounded corners*
20,1,$1+$1,$2,$3,$4,$5,0*
20,1,$1+$1,$4,$5,$6,$7,0*
20,1,$1+$1,$6,$7,$8,$9,0*
20,1,$1+$1,$8,$9,$2,$3,0*%
G04 Aperture macros list end*
%ADD10RoundRect,0.237500X-0.237500X0.250000X-0.237500X-0.250000X0.237500X-0.250000X0.237500X0.250000X0*%
%ADD11RoundRect,0.237500X-0.287500X-0.237500X0.287500X-0.237500X0.287500X0.237500X-0.287500X0.237500X0*%
%ADD12RoundRect,0.237500X-0.300000X-0.237500X0.300000X-0.237500X0.300000X0.237500X-0.300000X0.237500X0*%
%ADD13RoundRect,0.237500X0.237500X-0.250000X0.237500X0.250000X-0.237500X0.250000X-0.237500X-0.250000X0*%
%ADD14RoundRect,0.375000X0.625000X0.375000X-0.625000X0.375000X-0.625000X-0.375000X0.625000X-0.375000X0*%
%ADD15RoundRect,0.500000X0.500000X1.400000X-0.500000X1.400000X-0.500000X-1.400000X0.500000X-1.400000X0*%
%ADD16R,1.700000X1.700000*%
%ADD17C,1.700000*%
%ADD18RoundRect,0.237500X0.237500X-0.300000X0.237500X0.300000X-0.237500X0.300000X-0.237500X-0.300000X0*%
%ADD19RoundRect,0.237500X0.250000X0.237500X-0.250000X0.237500X-0.250000X-0.237500X0.250000X-0.237500X0*%
%ADD20R,2.500000X1.200000*%
%ADD21O,4.000000X1.500000*%
%ADD22R,1.600000X1.600000*%
%ADD23C,1.600000*%
%ADD24RoundRect,0.150000X0.675000X0.150000X-0.675000X0.150000X-0.675000X-0.150000X0.675000X-0.150000X0*%
%ADD25RoundRect,0.237500X0.237500X-0.287500X0.237500X0.287500X-0.237500X0.287500X-0.237500X-0.287500X0*%
G04 APERTURE END LIST*
D10*
%TO.C,R4*%
X176100000Y-97612500D03*
X176100000Y-95787500D03*
%TD*%
D11*
%TO.C,D4*%
X168625000Y-95500000D03*
X170375000Y-95500000D03*
%TD*%
%TO.C,D3*%
X168625000Y-100500000D03*
X170375000Y-100500000D03*
%TD*%
D12*
%TO.C,C3*%
X176137500Y-103500000D03*
X177862500Y-103500000D03*
%TD*%
D13*
%TO.C,R1*%
X185500000Y-88412500D03*
X185500000Y-86587500D03*
%TD*%
D14*
%TO.C,U1*%
X185512500Y-96300000D03*
X185512500Y-94000000D03*
D15*
X179212500Y-94000000D03*
D14*
X185512500Y-91700000D03*
%TD*%
D16*
%TO.C,J1*%
X177460000Y-87500000D03*
D17*
X180000000Y-87500000D03*
X182540000Y-87500000D03*
%TD*%
D18*
%TO.C,C2*%
X176500000Y-92862500D03*
X176500000Y-91137500D03*
%TD*%
D19*
%TO.C,R3*%
X177912500Y-101500000D03*
X176087500Y-101500000D03*
%TD*%
D18*
%TO.C,C1*%
X188200000Y-92862500D03*
X188200000Y-91137500D03*
%TD*%
D19*
%TO.C,R2*%
X177912500Y-99500000D03*
X176087500Y-99500000D03*
%TD*%
D11*
%TO.C,D2*%
X168625000Y-98000000D03*
X170375000Y-98000000D03*
%TD*%
D20*
%TO.C,USB1*%
X191273000Y-92000000D03*
X191273000Y-94500000D03*
X191273000Y-96500000D03*
X191273000Y-99000000D03*
D21*
X194073000Y-101200000D03*
X194073000Y-89800000D03*
%TD*%
D22*
%TO.C,SW1*%
X173499500Y-88000000D03*
D23*
X173500000Y-90000000D03*
X173500000Y-92000000D03*
X168500000Y-88000000D03*
X168500000Y-90000000D03*
X168500000Y-92000000D03*
%TD*%
D24*
%TO.C,U2*%
X185625000Y-103405000D03*
X185625000Y-102135000D03*
X185625000Y-100865000D03*
X185625000Y-99595000D03*
X180375000Y-99595000D03*
X180375000Y-100865000D03*
X180375000Y-102135000D03*
X180375000Y-103405000D03*
%TD*%
D16*
%TO.C,J3*%
X164160254Y-103999181D03*
D17*
X161620254Y-103999181D03*
X164160254Y-101459181D03*
X161620254Y-101459181D03*
X164160254Y-98919181D03*
X161620254Y-98919181D03*
X164160254Y-96379181D03*
X161620254Y-96379181D03*
X164160254Y-93839181D03*
X161620254Y-93839181D03*
%TD*%
D25*
%TO.C,D1*%
X187500000Y-88375000D03*
X187500000Y-86625000D03*
%TD*%
M02*
