%TF.GenerationSoftware,KiCad,Pcbnew,9.0.2*%
%TF.CreationDate,2025-05-29T11:38:48+08:00*%
%TF.ProjectId,uart_tool,75617274-5f74-46f6-9f6c-2e6b69636164,rev?*%
%TF.SameCoordinates,Original*%
%TF.FileFunction,Copper,L1,Top*%
%TF.FilePolarity,Positive*%
%FSLAX46Y46*%
G04 Gerber Fmt 4.6, Leading zero omitted, Abs format (unit mm)*
G04 Created by KiCad (PCBNEW 9.0.2) date 2025-05-29 11:38:48*
%MOMM*%
%LPD*%
G01*
G04 APERTURE LIST*
G04 Aperture macros list*
%AMRoundRect*
0 Rectangle with rounded corners*
0 $1 Rounding radius*
0 $2 $3 $4 $5 $6 $7 $8 $9 X,Y pos of 4 corners*
0 Add a 4 corners polygon primitive as box body*
4,1,4,$2,$3,$4,$5,$6,$7,$8,$9,$2,$3,0*
0 Add four circle primitives for the rounded corners*
1,1,$1+$1,$2,$3*
1,1,$1+$1,$4,$5*
1,1,$1+$1,$6,$7*
1,1,$1+$1,$8,$9*
0 Add four rect primitives between the rounded corners*
20,1,$1+$1,$2,$3,$4,$5,0*
20,1,$1+$1,$4,$5,$6,$7,0*
20,1,$1+$1,$6,$7,$8,$9,0*
20,1,$1+$1,$8,$9,$2,$3,0*%
G04 Aperture macros list end*
%TA.AperFunction,SMDPad,CuDef*%
%ADD10RoundRect,0.237500X-0.237500X0.250000X-0.237500X-0.250000X0.237500X-0.250000X0.237500X0.250000X0*%
%TD*%
%TA.AperFunction,SMDPad,CuDef*%
%ADD11RoundRect,0.237500X-0.287500X-0.237500X0.287500X-0.237500X0.287500X0.237500X-0.287500X0.237500X0*%
%TD*%
%TA.AperFunction,SMDPad,CuDef*%
%ADD12RoundRect,0.237500X-0.300000X-0.237500X0.300000X-0.237500X0.300000X0.237500X-0.300000X0.237500X0*%
%TD*%
%TA.AperFunction,SMDPad,CuDef*%
%ADD13RoundRect,0.237500X0.237500X-0.250000X0.237500X0.250000X-0.237500X0.250000X-0.237500X-0.250000X0*%
%TD*%
%TA.AperFunction,SMDPad,CuDef*%
%ADD14RoundRect,0.375000X0.625000X0.375000X-0.625000X0.375000X-0.625000X-0.375000X0.625000X-0.375000X0*%
%TD*%
%TA.AperFunction,SMDPad,CuDef*%
%ADD15RoundRect,0.500000X0.500000X1.400000X-0.500000X1.400000X-0.500000X-1.400000X0.500000X-1.400000X0*%
%TD*%
%TA.AperFunction,ComponentPad*%
%ADD16R,1.700000X1.700000*%
%TD*%
%TA.AperFunction,ComponentPad*%
%ADD17C,1.700000*%
%TD*%
%TA.AperFunction,SMDPad,CuDef*%
%ADD18RoundRect,0.237500X0.237500X-0.300000X0.237500X0.300000X-0.237500X0.300000X-0.237500X-0.300000X0*%
%TD*%
%TA.AperFunction,SMDPad,CuDef*%
%ADD19RoundRect,0.237500X0.250000X0.237500X-0.250000X0.237500X-0.250000X-0.237500X0.250000X-0.237500X0*%
%TD*%
%TA.AperFunction,SMDPad,CuDef*%
%ADD20R,2.500000X1.200000*%
%TD*%
%TA.AperFunction,ComponentPad*%
%ADD21O,4.000000X1.500000*%
%TD*%
%TA.AperFunction,ComponentPad*%
%ADD22R,1.600000X1.600000*%
%TD*%
%TA.AperFunction,ComponentPad*%
%ADD23C,1.600000*%
%TD*%
%TA.AperFunction,SMDPad,CuDef*%
%ADD24RoundRect,0.150000X0.675000X0.150000X-0.675000X0.150000X-0.675000X-0.150000X0.675000X-0.150000X0*%
%TD*%
%TA.AperFunction,SMDPad,CuDef*%
%ADD25RoundRect,0.237500X0.237500X-0.287500X0.237500X0.287500X-0.237500X0.287500X-0.237500X-0.287500X0*%
%TD*%
%TA.AperFunction,ViaPad*%
%ADD26C,0.600000*%
%TD*%
%TA.AperFunction,Conductor*%
%ADD27C,0.200000*%
%TD*%
%TA.AperFunction,Conductor*%
%ADD28C,0.500000*%
%TD*%
%TA.AperFunction,Conductor*%
%ADD29C,1.000000*%
%TD*%
G04 APERTURE END LIST*
D10*
%TO.P,R4,2*%
%TO.N,Net-(D4-A)*%
X176100000Y-97612500D03*
%TO.P,R4,1*%
%TO.N,/IO_CTRL*%
X176100000Y-95787500D03*
%TD*%
D11*
%TO.P,D4,1,K*%
%TO.N,GND*%
X168625000Y-95500000D03*
%TO.P,D4,2,A*%
%TO.N,Net-(D4-A)*%
X170375000Y-95500000D03*
%TD*%
%TO.P,D3,1,K*%
%TO.N,GND*%
X168625000Y-100500000D03*
%TO.P,D3,2,A*%
%TO.N,Net-(D3-A)*%
X170375000Y-100500000D03*
%TD*%
D12*
%TO.P,C3,1*%
%TO.N,GND*%
X176137500Y-103500000D03*
%TO.P,C3,2*%
%TO.N,Net-(U2-V3)*%
X177862500Y-103500000D03*
%TD*%
D13*
%TO.P,R1,1*%
%TO.N,VBUS*%
X185500000Y-88412500D03*
%TO.P,R1,2*%
%TO.N,Net-(D1-A)*%
X185500000Y-86587500D03*
%TD*%
D14*
%TO.P,U1,1,GND*%
%TO.N,GND*%
X185512500Y-96300000D03*
%TO.P,U1,2,VO*%
%TO.N,/3.3V*%
X185512500Y-94000000D03*
D15*
X179212500Y-94000000D03*
D14*
%TO.P,U1,3,VI*%
%TO.N,VBUS*%
X185512500Y-91700000D03*
%TD*%
D16*
%TO.P,J1,1,Pin_1*%
%TO.N,/3.3V*%
X177460000Y-87500000D03*
D17*
%TO.P,J1,2,Pin_2*%
%TO.N,/SW_PWR*%
X180000000Y-87500000D03*
%TO.P,J1,3,Pin_3*%
%TO.N,VBUS*%
X182540000Y-87500000D03*
%TD*%
D18*
%TO.P,C2,1*%
%TO.N,/3.3V*%
X176500000Y-92862500D03*
%TO.P,C2,2*%
%TO.N,GND*%
X176500000Y-91137500D03*
%TD*%
D19*
%TO.P,R3,1*%
%TO.N,/UART_RX*%
X177912500Y-101500000D03*
%TO.P,R3,2*%
%TO.N,Net-(D3-A)*%
X176087500Y-101500000D03*
%TD*%
D18*
%TO.P,C1,1*%
%TO.N,VBUS*%
X188200000Y-92862500D03*
%TO.P,C1,2*%
%TO.N,GND*%
X188200000Y-91137500D03*
%TD*%
D19*
%TO.P,R2,1*%
%TO.N,/UART_TX*%
X177912500Y-99500000D03*
%TO.P,R2,2*%
%TO.N,Net-(D2-A)*%
X176087500Y-99500000D03*
%TD*%
D11*
%TO.P,D2,1,K*%
%TO.N,GND*%
X168625000Y-98000000D03*
%TO.P,D2,2,A*%
%TO.N,Net-(D2-A)*%
X170375000Y-98000000D03*
%TD*%
D20*
%TO.P,USB1,1,VCC*%
%TO.N,VBUS*%
X191273000Y-92000000D03*
%TO.P,USB1,2,D-*%
%TO.N,/USB_D-*%
X191273000Y-94500000D03*
%TO.P,USB1,3,D+*%
%TO.N,/USB_D+*%
X191273000Y-96500000D03*
%TO.P,USB1,4,GND*%
%TO.N,GND*%
X191273000Y-99000000D03*
D21*
%TO.P,USB1,5,5*%
X194073000Y-101200000D03*
%TO.P,USB1,6,6*%
X194073000Y-89800000D03*
%TD*%
D22*
%TO.P,SW1,1,1*%
%TO.N,/SW_PWR*%
X173499500Y-88000000D03*
D23*
%TO.P,SW1,2,2*%
%TO.N,/IO_CTRL*%
X173500000Y-90000000D03*
%TO.P,SW1,3,3*%
%TO.N,GND*%
X173500000Y-92000000D03*
%TO.P,SW1,4,4*%
%TO.N,/SW_PWR*%
X168500000Y-88000000D03*
%TO.P,SW1,5,5*%
%TO.N,/IO_CTRL*%
X168500000Y-90000000D03*
%TO.P,SW1,6,6*%
%TO.N,GND*%
X168500000Y-92000000D03*
%TD*%
D24*
%TO.P,U2,1,UD+*%
%TO.N,/USB_D+*%
X185625000Y-103405000D03*
%TO.P,U2,2,UD-*%
%TO.N,/USB_D-*%
X185625000Y-102135000D03*
%TO.P,U2,3,GND*%
%TO.N,GND*%
X185625000Y-100865000D03*
%TO.P,U2,4,~{RTS}*%
%TO.N,unconnected-(U2-~{RTS}-Pad4)*%
X185625000Y-99595000D03*
%TO.P,U2,5,VCC*%
%TO.N,VBUS*%
X180375000Y-99595000D03*
%TO.P,U2,6,TXD*%
%TO.N,/UART_TX*%
X180375000Y-100865000D03*
%TO.P,U2,7,RXD*%
%TO.N,/UART_RX*%
X180375000Y-102135000D03*
%TO.P,U2,8,V3*%
%TO.N,Net-(U2-V3)*%
X180375000Y-103405000D03*
%TD*%
D16*
%TO.P,J3,1,Pin_1*%
%TO.N,VBUS*%
X164160254Y-103999181D03*
D17*
%TO.P,J3,2,Pin_2*%
X161620254Y-103999181D03*
%TO.P,J3,3,Pin_3*%
%TO.N,/3.3V*%
X164160254Y-101459181D03*
%TO.P,J3,4,Pin_4*%
X161620254Y-101459181D03*
%TO.P,J3,5,Pin_5*%
%TO.N,/UART_TX*%
X164160254Y-98919181D03*
%TO.P,J3,6,Pin_6*%
%TO.N,/UART_RX*%
X161620254Y-98919181D03*
%TO.P,J3,7,Pin_7*%
%TO.N,GND*%
X164160254Y-96379181D03*
%TO.P,J3,8,Pin_8*%
%TO.N,/IO_CTRL*%
X161620254Y-96379181D03*
%TO.P,J3,9,Pin_9*%
%TO.N,GND*%
X164160254Y-93839181D03*
%TO.P,J3,10,Pin_10*%
X161620254Y-93839181D03*
%TD*%
D25*
%TO.P,D1,1,K*%
%TO.N,GND*%
X187500000Y-88375000D03*
%TO.P,D1,2,A*%
%TO.N,Net-(D1-A)*%
X187500000Y-86625000D03*
%TD*%
D26*
%TO.N,GND*%
X172485254Y-102119181D03*
X169285254Y-102119181D03*
%TD*%
D27*
%TO.N,GND*%
X172485254Y-102119181D02*
X169285254Y-102119181D01*
X168625000Y-101458927D02*
X169285254Y-102119181D01*
X168625000Y-100500000D02*
X168625000Y-101458927D01*
%TO.N,/UART_RX*%
X162885254Y-100184181D02*
X161620254Y-98919181D01*
X162885254Y-102219181D02*
X162885254Y-100184181D01*
X163390073Y-102724000D02*
X162885254Y-102219181D01*
X176688500Y-102724000D02*
X163390073Y-102724000D01*
X177912500Y-101500000D02*
X176688500Y-102724000D01*
X177912500Y-101500000D02*
X177958468Y-101545967D01*
%TO.N,/UART_TX*%
X164460254Y-99219181D02*
X164160254Y-98919181D01*
X172985254Y-99219181D02*
X164460254Y-99219181D01*
X174185254Y-100419181D02*
X172985254Y-99219181D01*
X176993319Y-100419181D02*
X174185254Y-100419181D01*
X177912500Y-99500000D02*
X176993319Y-100419181D01*
%TO.N,/IO_CTRL*%
X160185254Y-92419181D02*
X160185254Y-94944181D01*
X162604435Y-90000000D02*
X160185254Y-92419181D01*
X160185254Y-94944181D02*
X161620254Y-96379181D01*
X168500000Y-90000000D02*
X162604435Y-90000000D01*
X174287500Y-95787500D02*
X168500000Y-90000000D01*
X176100000Y-95787500D02*
X174287500Y-95787500D01*
%TO.N,Net-(D4-A)*%
X174700000Y-97612500D02*
X172587500Y-95500000D01*
X176100000Y-97612500D02*
X174700000Y-97612500D01*
%TO.N,GND*%
X194073000Y-89800000D02*
X193800000Y-89800000D01*
D28*
X168625000Y-98000000D02*
X168100000Y-98000000D01*
D27*
X193800000Y-89800000D02*
X193500000Y-89500000D01*
D28*
%TO.N,VBUS*%
X181400000Y-99600000D02*
X182900000Y-98100000D01*
X186700000Y-98100000D02*
X187600000Y-97200000D01*
X187600000Y-97200000D02*
X187600000Y-93462500D01*
X181395000Y-99595000D02*
X181400000Y-99600000D01*
X182900000Y-98100000D02*
X186700000Y-98100000D01*
X180375000Y-99595000D02*
X181395000Y-99595000D01*
X187600000Y-93462500D02*
X188200000Y-92862500D01*
D29*
%TO.N,/3.3V*%
X179212500Y-94000000D02*
X179212500Y-91212500D01*
X179212500Y-94000000D02*
X185512500Y-94000000D01*
X176500000Y-92862500D02*
X177637500Y-94000000D01*
X177460000Y-89460000D02*
X177460000Y-87500000D01*
X179212500Y-91212500D02*
X177460000Y-89460000D01*
X177637500Y-94000000D02*
X179212500Y-94000000D01*
D28*
%TO.N,Net-(U2-V3)*%
X177957500Y-103405000D02*
X177862500Y-103500000D01*
X180375000Y-103405000D02*
X177957500Y-103405000D01*
%TO.N,Net-(D1-A)*%
X185500000Y-86587500D02*
X187462500Y-86587500D01*
X187462500Y-86587500D02*
X187500000Y-86625000D01*
%TO.N,Net-(D2-A)*%
X172800000Y-98000000D02*
X170375000Y-98000000D01*
X174300000Y-99500000D02*
X172800000Y-98000000D01*
X176087500Y-99500000D02*
X174300000Y-99500000D01*
%TO.N,Net-(D3-A)*%
X176087500Y-101500000D02*
X174200000Y-101500000D01*
X173200000Y-100500000D02*
X170375000Y-100500000D01*
X174200000Y-101500000D02*
X173200000Y-100500000D01*
D27*
%TO.N,Net-(D4-A)*%
X172587500Y-95500000D02*
X170375000Y-95500000D01*
D28*
%TO.N,/SW_PWR*%
X168500000Y-88000000D02*
X173499500Y-88000000D01*
X180000000Y-87500000D02*
X180000000Y-86297919D01*
X180000000Y-86297919D02*
X178702081Y-85000000D01*
X173499500Y-86500500D02*
X173499500Y-88000000D01*
X178702081Y-85000000D02*
X175000000Y-85000000D01*
X175000000Y-85000000D02*
X173499500Y-86500500D01*
%TO.N,/UART_RX*%
X178547500Y-102135000D02*
X177912500Y-101500000D01*
X180375000Y-102135000D02*
X178547500Y-102135000D01*
%TO.N,/IO_CTRL*%
X173500000Y-90000000D02*
X173600000Y-90100000D01*
X173500000Y-90000000D02*
X171600000Y-90000000D01*
X171600000Y-90000000D02*
X168500000Y-90000000D01*
%TO.N,/UART_TX*%
X179277500Y-100865000D02*
X177912500Y-99500000D01*
X180375000Y-100865000D02*
X179277500Y-100865000D01*
%TO.N,/USB_D-*%
X188700000Y-95100000D02*
X188700000Y-101400000D01*
X191273000Y-94500000D02*
X189300000Y-94500000D01*
X189300000Y-94500000D02*
X188700000Y-95100000D01*
X187965000Y-102135000D02*
X185625000Y-102135000D01*
X188700000Y-101400000D02*
X187965000Y-102135000D01*
%TO.N,/USB_D+*%
X190000000Y-96500000D02*
X189572000Y-96928000D01*
X189572000Y-101728000D02*
X187895000Y-103405000D01*
X189572000Y-96928000D02*
X189572000Y-101728000D01*
X191273000Y-96500000D02*
X190000000Y-96500000D01*
X187895000Y-103405000D02*
X185625000Y-103405000D01*
%TD*%
%TA.AperFunction,Conductor*%
%TO.N,GND*%
G36*
X169352092Y-99839366D02*
G01*
X169397847Y-99892170D01*
X169407791Y-99961328D01*
X169402759Y-99982683D01*
X169359826Y-100112247D01*
X169359826Y-100112248D01*
X169359825Y-100112248D01*
X169349500Y-100213315D01*
X169349500Y-100786669D01*
X169349501Y-100786687D01*
X169359825Y-100887752D01*
X169377393Y-100940766D01*
X169414092Y-101051516D01*
X169504660Y-101198350D01*
X169626650Y-101320340D01*
X169773484Y-101410908D01*
X169937247Y-101465174D01*
X170038323Y-101475500D01*
X170711676Y-101475499D01*
X170711684Y-101475498D01*
X170711687Y-101475498D01*
X170767030Y-101469844D01*
X170812753Y-101465174D01*
X170976516Y-101410908D01*
X171123350Y-101320340D01*
X171156871Y-101286819D01*
X171218194Y-101253334D01*
X171244552Y-101250500D01*
X172837770Y-101250500D01*
X172904809Y-101270185D01*
X172925451Y-101286819D01*
X173550452Y-101911819D01*
X173583937Y-101973142D01*
X173578953Y-102042833D01*
X173537082Y-102098767D01*
X173471617Y-102123184D01*
X173462771Y-102123500D01*
X165535074Y-102123500D01*
X165468035Y-102103815D01*
X165422280Y-102051011D01*
X165412336Y-101981853D01*
X165417143Y-101961182D01*
X165421778Y-101946917D01*
X165477500Y-101775424D01*
X165510754Y-101565468D01*
X165510754Y-101352894D01*
X165477500Y-101142938D01*
X165411811Y-100940769D01*
X165315305Y-100751365D01*
X165315303Y-100751362D01*
X165315302Y-100751360D01*
X165190363Y-100579394D01*
X165040040Y-100429071D01*
X164868074Y-100304132D01*
X164867369Y-100303772D01*
X164859308Y-100299666D01*
X164808513Y-100251693D01*
X164791717Y-100183873D01*
X164814253Y-100117737D01*
X164859308Y-100078696D01*
X164868070Y-100074232D01*
X164962813Y-100005398D01*
X165040040Y-99949290D01*
X165040042Y-99949287D01*
X165040046Y-99949285D01*
X165133331Y-99856000D01*
X165194654Y-99822515D01*
X165221012Y-99819681D01*
X169285053Y-99819681D01*
X169352092Y-99839366D01*
G37*
%TD.AperFunction*%
%TA.AperFunction,Conductor*%
G36*
X178406890Y-85770185D02*
G01*
X178427532Y-85786819D01*
X178619087Y-85978374D01*
X178652572Y-86039697D01*
X178647588Y-86109389D01*
X178605716Y-86165322D01*
X178540252Y-86189739D01*
X178488073Y-86182237D01*
X178417482Y-86155908D01*
X178417483Y-86155908D01*
X178357883Y-86149501D01*
X178357881Y-86149500D01*
X178357873Y-86149500D01*
X178357864Y-86149500D01*
X176562129Y-86149500D01*
X176562123Y-86149501D01*
X176502516Y-86155908D01*
X176367671Y-86206202D01*
X176367664Y-86206206D01*
X176252455Y-86292452D01*
X176252452Y-86292455D01*
X176166206Y-86407664D01*
X176166202Y-86407671D01*
X176115908Y-86542517D01*
X176109501Y-86602116D01*
X176109500Y-86602135D01*
X176109500Y-88397870D01*
X176109501Y-88397876D01*
X176115908Y-88457483D01*
X176166202Y-88592328D01*
X176166206Y-88592335D01*
X176252452Y-88707544D01*
X176252455Y-88707547D01*
X176367665Y-88793794D01*
X176367667Y-88793794D01*
X176367669Y-88793796D01*
X176378830Y-88797958D01*
X176434764Y-88839826D01*
X176459184Y-88905289D01*
X176459500Y-88914141D01*
X176459500Y-89558543D01*
X176476600Y-89644506D01*
X176476600Y-89644507D01*
X176497947Y-89751829D01*
X176497949Y-89751836D01*
X176504734Y-89768217D01*
X176573366Y-89933911D01*
X176573371Y-89933920D01*
X176682859Y-90097780D01*
X176682860Y-90097781D01*
X176682861Y-90097782D01*
X176822218Y-90237139D01*
X176822219Y-90237139D01*
X176829286Y-90244206D01*
X176829285Y-90244206D01*
X176829289Y-90244209D01*
X178164659Y-91579579D01*
X178198144Y-91640902D01*
X178193160Y-91710594D01*
X178155339Y-91763362D01*
X178001390Y-91888890D01*
X177872804Y-92046590D01*
X177872802Y-92046593D01*
X177809981Y-92166858D01*
X177778590Y-92226953D01*
X177749766Y-92327688D01*
X177725572Y-92412247D01*
X177725474Y-92412588D01*
X177722797Y-92416817D01*
X177722440Y-92421810D01*
X177704298Y-92446043D01*
X177688107Y-92471625D01*
X177683567Y-92473736D01*
X177680568Y-92477743D01*
X177652204Y-92488322D01*
X177624753Y-92501089D01*
X177619793Y-92500410D01*
X177615104Y-92502160D01*
X177585525Y-92495725D01*
X177555527Y-92491624D01*
X177550387Y-92488081D01*
X177546831Y-92487308D01*
X177518577Y-92466157D01*
X177486206Y-92433786D01*
X177456181Y-92385109D01*
X177410908Y-92248484D01*
X177320340Y-92101650D01*
X177198350Y-91979660D01*
X177051516Y-91889092D01*
X176887753Y-91834826D01*
X176887751Y-91834825D01*
X176786678Y-91824500D01*
X176213330Y-91824500D01*
X176213312Y-91824501D01*
X176112247Y-91834825D01*
X175948484Y-91889092D01*
X175948481Y-91889093D01*
X175801648Y-91979661D01*
X175679661Y-92101648D01*
X175589093Y-92248481D01*
X175589092Y-92248484D01*
X175534826Y-92412247D01*
X175534826Y-92412248D01*
X175534825Y-92412248D01*
X175524500Y-92513315D01*
X175524500Y-92626064D01*
X175522117Y-92650255D01*
X175499500Y-92763956D01*
X175499500Y-92763960D01*
X175499500Y-92961040D01*
X175507150Y-92999500D01*
X175522118Y-93074752D01*
X175524500Y-93098941D01*
X175524500Y-93211668D01*
X175524501Y-93211687D01*
X175534825Y-93312752D01*
X175565695Y-93405909D01*
X175589092Y-93476516D01*
X175679660Y-93623350D01*
X175801650Y-93745340D01*
X175948484Y-93835908D01*
X176085110Y-93881181D01*
X176133786Y-93911206D01*
X176857235Y-94634655D01*
X176857264Y-94634686D01*
X176999714Y-94777136D01*
X176999718Y-94777139D01*
X177163579Y-94886628D01*
X177163592Y-94886635D01*
X177292333Y-94939961D01*
X177327823Y-94954661D01*
X177345664Y-94962051D01*
X177427936Y-94978416D01*
X177538959Y-95000500D01*
X177538960Y-95000500D01*
X177596197Y-95000500D01*
X177604323Y-95001579D01*
X177629067Y-95012558D01*
X177655040Y-95020185D01*
X177660527Y-95026517D01*
X177668188Y-95029917D01*
X177683068Y-95052531D01*
X177700795Y-95072989D01*
X177702901Y-95082672D01*
X177706594Y-95088284D01*
X177706723Y-95100238D01*
X177712001Y-95124500D01*
X177712001Y-95458034D01*
X177722613Y-95577415D01*
X177778589Y-95773045D01*
X177778590Y-95773048D01*
X177778591Y-95773049D01*
X177872802Y-95953407D01*
X177907477Y-95995933D01*
X178001390Y-96111109D01*
X178060620Y-96159404D01*
X178159093Y-96239698D01*
X178339451Y-96333909D01*
X178535082Y-96389886D01*
X178654463Y-96400500D01*
X179770536Y-96400499D01*
X179889918Y-96389886D01*
X180085549Y-96333909D01*
X180265907Y-96239698D01*
X180423609Y-96111109D01*
X180552198Y-95953407D01*
X180646409Y-95773049D01*
X180702386Y-95577418D01*
X180713000Y-95458037D01*
X180713000Y-95124500D01*
X180732685Y-95057461D01*
X180785489Y-95011706D01*
X180837000Y-95000500D01*
X184224576Y-95000500D01*
X184291615Y-95020185D01*
X184302260Y-95027850D01*
X184362969Y-95076650D01*
X184413204Y-95117030D01*
X184413207Y-95117032D01*
X184583802Y-95201639D01*
X184583803Y-95201639D01*
X184583807Y-95201641D01*
X184768611Y-95247600D01*
X184811377Y-95250500D01*
X186213622Y-95250499D01*
X186256389Y-95247600D01*
X186441193Y-95201641D01*
X186611796Y-95117030D01*
X186647813Y-95088078D01*
X186712396Y-95061419D01*
X186781140Y-95073909D01*
X186832219Y-95121582D01*
X186849500Y-95184725D01*
X186849500Y-96837770D01*
X186829815Y-96904809D01*
X186813181Y-96925451D01*
X186425451Y-97313181D01*
X186364128Y-97346666D01*
X186337770Y-97349500D01*
X182826080Y-97349500D01*
X182681092Y-97378340D01*
X182681082Y-97378343D01*
X182544511Y-97434912D01*
X182544498Y-97434919D01*
X182421584Y-97517048D01*
X182421580Y-97517051D01*
X181180450Y-98758181D01*
X181119127Y-98791666D01*
X181092769Y-98794500D01*
X179634298Y-98794500D01*
X179597432Y-98797401D01*
X179597426Y-98797402D01*
X179439606Y-98843254D01*
X179439603Y-98843255D01*
X179298137Y-98926917D01*
X179298129Y-98926923D01*
X179181923Y-99043129D01*
X179181916Y-99043138D01*
X179118400Y-99150539D01*
X179067331Y-99198223D01*
X178998589Y-99210726D01*
X178934000Y-99184080D01*
X178894070Y-99126745D01*
X178890413Y-99113365D01*
X178890174Y-99112252D01*
X178890174Y-99112247D01*
X178835908Y-98948484D01*
X178745340Y-98801650D01*
X178623350Y-98679660D01*
X178492573Y-98598996D01*
X178476518Y-98589093D01*
X178476513Y-98589091D01*
X178459502Y-98583454D01*
X178312753Y-98534826D01*
X178312751Y-98534825D01*
X178211678Y-98524500D01*
X177613330Y-98524500D01*
X177613312Y-98524501D01*
X177512247Y-98534825D01*
X177348484Y-98589092D01*
X177348481Y-98589093D01*
X177201648Y-98679661D01*
X177087681Y-98793629D01*
X177081930Y-98796768D01*
X177078216Y-98802168D01*
X177051640Y-98813308D01*
X177026358Y-98827114D01*
X177019823Y-98826646D01*
X177013780Y-98829180D01*
X176985406Y-98824185D01*
X176956666Y-98822130D01*
X176949819Y-98817921D01*
X176944968Y-98817067D01*
X176924318Y-98802242D01*
X176915891Y-98797062D01*
X176914083Y-98795393D01*
X176798350Y-98679660D01*
X176769302Y-98661743D01*
X176760496Y-98653614D01*
X176748453Y-98633512D01*
X176732784Y-98616092D01*
X176730832Y-98604100D01*
X176724588Y-98593677D01*
X176725324Y-98570256D01*
X176721561Y-98547129D01*
X176726402Y-98535984D01*
X176726785Y-98523842D01*
X176740065Y-98504538D01*
X176749404Y-98483047D01*
X176762897Y-98471355D01*
X176766389Y-98466280D01*
X176770970Y-98464359D01*
X176779509Y-98456961D01*
X176798350Y-98445340D01*
X176920340Y-98323350D01*
X177010908Y-98176516D01*
X177065174Y-98012753D01*
X177075500Y-97911677D01*
X177075499Y-97313324D01*
X177075484Y-97313181D01*
X177065174Y-97212247D01*
X177054376Y-97179661D01*
X177010908Y-97048484D01*
X176920340Y-96901650D01*
X176806371Y-96787681D01*
X176772886Y-96726358D01*
X176777870Y-96656666D01*
X176806371Y-96612319D01*
X176819009Y-96599681D01*
X176920340Y-96498350D01*
X177010908Y-96351516D01*
X177065174Y-96187753D01*
X177075500Y-96086677D01*
X177075499Y-95488324D01*
X177065174Y-95387247D01*
X177010908Y-95223484D01*
X176920340Y-95076650D01*
X176798350Y-94954660D01*
X176707129Y-94898395D01*
X176651518Y-94864093D01*
X176651513Y-94864091D01*
X176631656Y-94857511D01*
X176487753Y-94809826D01*
X176487751Y-94809825D01*
X176386678Y-94799500D01*
X175813330Y-94799500D01*
X175813312Y-94799501D01*
X175712247Y-94809825D01*
X175548484Y-94864092D01*
X175548481Y-94864093D01*
X175401648Y-94954661D01*
X175279659Y-95076650D01*
X175247928Y-95128096D01*
X175195980Y-95174821D01*
X175142389Y-95187000D01*
X174587597Y-95187000D01*
X174520558Y-95167315D01*
X174499916Y-95150681D01*
X170311416Y-90962181D01*
X170277931Y-90900858D01*
X170282915Y-90831166D01*
X170324787Y-90775233D01*
X170390251Y-90750816D01*
X170399097Y-90750500D01*
X171526082Y-90750500D01*
X172374582Y-90750500D01*
X172441621Y-90770185D01*
X172474900Y-90801615D01*
X172508028Y-90847212D01*
X172508032Y-90847217D01*
X172652786Y-90991971D01*
X172807749Y-91104556D01*
X172818390Y-91112287D01*
X172907457Y-91157669D01*
X173000776Y-91205218D01*
X173000778Y-91205218D01*
X173000781Y-91205220D01*
X173105137Y-91239127D01*
X173195465Y-91268477D01*
X173296557Y-91284488D01*
X173397648Y-91300500D01*
X173397649Y-91300500D01*
X173602351Y-91300500D01*
X173602352Y-91300500D01*
X173804534Y-91268477D01*
X173999219Y-91205220D01*
X174181610Y-91112287D01*
X174277736Y-91042448D01*
X174347213Y-90991971D01*
X174347215Y-90991968D01*
X174347219Y-90991966D01*
X174491966Y-90847219D01*
X174491968Y-90847215D01*
X174491971Y-90847213D01*
X174570897Y-90738579D01*
X174612287Y-90681610D01*
X174705220Y-90499219D01*
X174768477Y-90304534D01*
X174800500Y-90102352D01*
X174800500Y-89897648D01*
X174768477Y-89695466D01*
X174751919Y-89644507D01*
X174711296Y-89519481D01*
X174705220Y-89500781D01*
X174705218Y-89500778D01*
X174705218Y-89500776D01*
X174661611Y-89415194D01*
X174612707Y-89319215D01*
X174599812Y-89250549D01*
X174626088Y-89185809D01*
X174648883Y-89163656D01*
X174657046Y-89157546D01*
X174743296Y-89042331D01*
X174793591Y-88907483D01*
X174800000Y-88847873D01*
X174799999Y-87152128D01*
X174793591Y-87092517D01*
X174744793Y-86961684D01*
X174743297Y-86957671D01*
X174743293Y-86957664D01*
X174657047Y-86842455D01*
X174657044Y-86842452D01*
X174541835Y-86756206D01*
X174534132Y-86752000D01*
X174484727Y-86702594D01*
X174469876Y-86634321D01*
X174494294Y-86568857D01*
X174505872Y-86555494D01*
X175274548Y-85786819D01*
X175335871Y-85753334D01*
X175362229Y-85750500D01*
X178339851Y-85750500D01*
X178406890Y-85770185D01*
G37*
%TD.AperFunction*%
%TA.AperFunction,Conductor*%
G36*
X167337437Y-90620185D02*
G01*
X167380883Y-90668205D01*
X167387715Y-90681614D01*
X167508028Y-90847213D01*
X167652786Y-90991971D01*
X167807749Y-91104556D01*
X167818390Y-91112287D01*
X167907457Y-91157669D01*
X168000776Y-91205218D01*
X168000778Y-91205218D01*
X168000781Y-91205220D01*
X168105137Y-91239127D01*
X168195465Y-91268477D01*
X168296557Y-91284488D01*
X168397648Y-91300500D01*
X168397649Y-91300500D01*
X168602351Y-91300500D01*
X168602352Y-91300500D01*
X168804534Y-91268477D01*
X168818842Y-91263827D01*
X168888682Y-91261831D01*
X168944842Y-91294077D01*
X172338584Y-94687819D01*
X172372069Y-94749142D01*
X172367085Y-94818834D01*
X172325213Y-94874767D01*
X172259749Y-94899184D01*
X172250903Y-94899500D01*
X171374901Y-94899500D01*
X171307862Y-94879815D01*
X171269362Y-94840596D01*
X171245340Y-94801650D01*
X171123351Y-94679661D01*
X171123350Y-94679660D01*
X170976516Y-94589092D01*
X170812753Y-94534826D01*
X170812751Y-94534825D01*
X170711678Y-94524500D01*
X170038330Y-94524500D01*
X170038312Y-94524501D01*
X169937247Y-94534825D01*
X169773484Y-94589092D01*
X169773481Y-94589093D01*
X169626648Y-94679661D01*
X169504661Y-94801648D01*
X169414093Y-94948481D01*
X169414091Y-94948486D01*
X169389322Y-95023235D01*
X169359826Y-95112247D01*
X169359826Y-95112248D01*
X169359825Y-95112248D01*
X169349500Y-95213315D01*
X169349500Y-95786669D01*
X169349501Y-95786687D01*
X169359825Y-95887752D01*
X169396109Y-95997249D01*
X169414092Y-96051516D01*
X169504660Y-96198350D01*
X169626650Y-96320340D01*
X169773484Y-96410908D01*
X169937247Y-96465174D01*
X170038323Y-96475500D01*
X170711676Y-96475499D01*
X170711684Y-96475498D01*
X170711687Y-96475498D01*
X170778568Y-96468666D01*
X170812753Y-96465174D01*
X170976516Y-96410908D01*
X171123350Y-96320340D01*
X171245340Y-96198350D01*
X171269362Y-96159404D01*
X171321310Y-96112679D01*
X171374901Y-96100500D01*
X172287403Y-96100500D01*
X172354442Y-96120185D01*
X172375084Y-96136819D01*
X174215139Y-97976874D01*
X174215149Y-97976885D01*
X174219479Y-97981215D01*
X174219480Y-97981216D01*
X174331284Y-98093020D01*
X174331286Y-98093021D01*
X174331290Y-98093024D01*
X174416192Y-98142042D01*
X174416193Y-98142042D01*
X174468215Y-98172077D01*
X174620943Y-98213000D01*
X175142389Y-98213000D01*
X175209428Y-98232685D01*
X175247928Y-98271904D01*
X175257681Y-98287717D01*
X175279660Y-98323350D01*
X175401650Y-98445340D01*
X175407988Y-98449249D01*
X175427760Y-98471230D01*
X175449429Y-98491337D01*
X175450862Y-98496912D01*
X175454713Y-98501194D01*
X175459462Y-98530375D01*
X175466822Y-98559007D01*
X175465012Y-98564472D01*
X175465938Y-98570156D01*
X175454158Y-98597268D01*
X175444869Y-98625338D01*
X175439926Y-98630027D01*
X175438097Y-98634239D01*
X175420862Y-98651210D01*
X175414711Y-98656183D01*
X175376650Y-98679660D01*
X175338500Y-98717809D01*
X175333416Y-98721921D01*
X175306955Y-98732933D01*
X175281806Y-98746666D01*
X175271224Y-98747803D01*
X175268910Y-98748767D01*
X175266413Y-98748320D01*
X175255448Y-98749500D01*
X174662229Y-98749500D01*
X174595190Y-98729815D01*
X174574548Y-98713181D01*
X173278421Y-97417052D01*
X173278414Y-97417046D01*
X173204729Y-97367812D01*
X173204729Y-97367813D01*
X173155491Y-97334913D01*
X173018917Y-97278343D01*
X173018907Y-97278340D01*
X172873920Y-97249500D01*
X172873918Y-97249500D01*
X171244552Y-97249500D01*
X171177513Y-97229815D01*
X171156871Y-97213181D01*
X171123351Y-97179661D01*
X171123350Y-97179660D01*
X170976516Y-97089092D01*
X170812753Y-97034826D01*
X170812751Y-97034825D01*
X170711678Y-97024500D01*
X170038330Y-97024500D01*
X170038312Y-97024501D01*
X169937247Y-97034825D01*
X169773484Y-97089092D01*
X169773481Y-97089093D01*
X169626648Y-97179661D01*
X169504661Y-97301648D01*
X169414093Y-97448481D01*
X169414091Y-97448486D01*
X169391372Y-97517048D01*
X169359826Y-97612247D01*
X169359826Y-97612248D01*
X169359825Y-97612248D01*
X169349500Y-97713315D01*
X169349500Y-98286669D01*
X169349501Y-98286687D01*
X169359825Y-98387752D01*
X169382334Y-98455676D01*
X169384736Y-98525505D01*
X169349005Y-98585547D01*
X169286484Y-98616740D01*
X169264628Y-98618681D01*
X165572706Y-98618681D01*
X165505667Y-98598996D01*
X165459912Y-98546192D01*
X165454775Y-98532999D01*
X165411811Y-98400769D01*
X165315305Y-98211365D01*
X165315303Y-98211362D01*
X165315302Y-98211360D01*
X165190363Y-98039394D01*
X165040040Y-97889071D01*
X164868074Y-97764132D01*
X164678668Y-97667625D01*
X164678667Y-97667624D01*
X164678666Y-97667624D01*
X164476497Y-97601935D01*
X164476495Y-97601934D01*
X164476494Y-97601934D01*
X164299650Y-97573925D01*
X164266541Y-97568681D01*
X164053967Y-97568681D01*
X164020858Y-97573925D01*
X163844014Y-97601934D01*
X163641839Y-97667625D01*
X163452433Y-97764132D01*
X163280467Y-97889071D01*
X163130144Y-98039394D01*
X163005203Y-98211363D01*
X163000738Y-98220127D01*
X162952763Y-98270923D01*
X162884942Y-98287717D01*
X162818807Y-98265179D01*
X162779770Y-98220127D01*
X162775304Y-98211363D01*
X162650363Y-98039394D01*
X162500040Y-97889071D01*
X162328074Y-97764132D01*
X162327369Y-97763772D01*
X162319308Y-97759666D01*
X162268513Y-97711693D01*
X162251717Y-97643873D01*
X162274253Y-97577737D01*
X162319308Y-97538696D01*
X162328070Y-97534232D01*
X162433620Y-97457546D01*
X162500040Y-97409290D01*
X162500042Y-97409287D01*
X162500046Y-97409285D01*
X162650358Y-97258973D01*
X162650360Y-97258969D01*
X162650363Y-97258967D01*
X162775302Y-97087001D01*
X162775301Y-97087001D01*
X162775305Y-97086997D01*
X162871811Y-96897593D01*
X162937500Y-96695424D01*
X162970754Y-96485468D01*
X162970754Y-96272894D01*
X162937500Y-96062938D01*
X162871811Y-95860769D01*
X162775305Y-95671365D01*
X162775303Y-95671362D01*
X162775302Y-95671360D01*
X162650363Y-95499394D01*
X162500040Y-95349071D01*
X162328074Y-95224132D01*
X162138668Y-95127625D01*
X162138667Y-95127624D01*
X162138666Y-95127624D01*
X161936497Y-95061935D01*
X161936495Y-95061934D01*
X161936494Y-95061934D01*
X161775211Y-95036389D01*
X161726541Y-95028681D01*
X161513967Y-95028681D01*
X161485260Y-95033227D01*
X161304011Y-95061934D01*
X161261727Y-95075673D01*
X161191886Y-95077667D01*
X161135730Y-95045422D01*
X160822073Y-94731765D01*
X160788588Y-94670442D01*
X160785754Y-94644084D01*
X160785754Y-92719278D01*
X160805439Y-92652239D01*
X160822073Y-92631597D01*
X162816852Y-90636819D01*
X162878175Y-90603334D01*
X162904533Y-90600500D01*
X167270398Y-90600500D01*
X167337437Y-90620185D01*
G37*
%TD.AperFunction*%
%TA.AperFunction,Conductor*%
G36*
X196442539Y-84020185D02*
G01*
X196488294Y-84072989D01*
X196499500Y-84124500D01*
X196499500Y-89415194D01*
X196495275Y-89447285D01*
X196490500Y-89465103D01*
X196490500Y-101534893D01*
X196495275Y-101552713D01*
X196499500Y-101584805D01*
X196499500Y-106176000D01*
X196479815Y-106243039D01*
X196427011Y-106288794D01*
X196375500Y-106300000D01*
X159324000Y-106300000D01*
X159256961Y-106280315D01*
X159211206Y-106227511D01*
X159200000Y-106176000D01*
X159200000Y-95023235D01*
X159584752Y-95023235D01*
X159590697Y-95045422D01*
X159618149Y-95147873D01*
X159625677Y-95175965D01*
X159625678Y-95175968D01*
X159632049Y-95187002D01*
X159632050Y-95187004D01*
X159704731Y-95312893D01*
X159704735Y-95312898D01*
X159823603Y-95431766D01*
X159823609Y-95431771D01*
X160286495Y-95894657D01*
X160319980Y-95955980D01*
X160316746Y-96020654D01*
X160303007Y-96062938D01*
X160275012Y-96239695D01*
X160269754Y-96272894D01*
X160269754Y-96485468D01*
X160278131Y-96538358D01*
X160298483Y-96666858D01*
X160303008Y-96695424D01*
X160349259Y-96837770D01*
X160368698Y-96897595D01*
X160465205Y-97087001D01*
X160590144Y-97258967D01*
X160740467Y-97409290D01*
X160912436Y-97534231D01*
X160921200Y-97538697D01*
X160971996Y-97586672D01*
X160988790Y-97654493D01*
X160966252Y-97720628D01*
X160921200Y-97759665D01*
X160912436Y-97764130D01*
X160740467Y-97889071D01*
X160590144Y-98039394D01*
X160465205Y-98211360D01*
X160368698Y-98400766D01*
X160303007Y-98602941D01*
X160269754Y-98812894D01*
X160269754Y-99025467D01*
X160299507Y-99213324D01*
X160303008Y-99235424D01*
X160365135Y-99426631D01*
X160368698Y-99437595D01*
X160465205Y-99627001D01*
X160590144Y-99798967D01*
X160740467Y-99949290D01*
X160912436Y-100074231D01*
X160921200Y-100078697D01*
X160971996Y-100126672D01*
X160988790Y-100194493D01*
X160966252Y-100260628D01*
X160921200Y-100299665D01*
X160912436Y-100304130D01*
X160740467Y-100429071D01*
X160590144Y-100579394D01*
X160465205Y-100751360D01*
X160368698Y-100940766D01*
X160303007Y-101142941D01*
X160269754Y-101352894D01*
X160269754Y-101565467D01*
X160294958Y-101724603D01*
X160303008Y-101775424D01*
X160366067Y-101969500D01*
X160368698Y-101977595D01*
X160465205Y-102167001D01*
X160590144Y-102338967D01*
X160740467Y-102489290D01*
X160912436Y-102614231D01*
X160921200Y-102618697D01*
X160971996Y-102666672D01*
X160988790Y-102734493D01*
X160966252Y-102800628D01*
X160921200Y-102839665D01*
X160912436Y-102844130D01*
X160740467Y-102969071D01*
X160590144Y-103119394D01*
X160465205Y-103291360D01*
X160368698Y-103480766D01*
X160303007Y-103682941D01*
X160282028Y-103815398D01*
X160269754Y-103892894D01*
X160269754Y-104105468D01*
X160303008Y-104315424D01*
X160355019Y-104475498D01*
X160368698Y-104517595D01*
X160465205Y-104707001D01*
X160590144Y-104878967D01*
X160740467Y-105029290D01*
X160912433Y-105154229D01*
X160912435Y-105154230D01*
X160912438Y-105154232D01*
X161101842Y-105250738D01*
X161304011Y-105316427D01*
X161513967Y-105349681D01*
X161513968Y-105349681D01*
X161726540Y-105349681D01*
X161726541Y-105349681D01*
X161936497Y-105316427D01*
X162138666Y-105250738D01*
X162328070Y-105154232D01*
X162500046Y-105029285D01*
X162613583Y-104915747D01*
X162674902Y-104882265D01*
X162744594Y-104887249D01*
X162800528Y-104929120D01*
X162817443Y-104960098D01*
X162866456Y-105091509D01*
X162866460Y-105091516D01*
X162952706Y-105206725D01*
X162952709Y-105206728D01*
X163067918Y-105292974D01*
X163067925Y-105292978D01*
X163202771Y-105343272D01*
X163202770Y-105343272D01*
X163209698Y-105344016D01*
X163262381Y-105349681D01*
X165058126Y-105349680D01*
X165117737Y-105343272D01*
X165252585Y-105292977D01*
X165367800Y-105206727D01*
X165454050Y-105091512D01*
X165504345Y-104956664D01*
X165510754Y-104897054D01*
X165510753Y-103448499D01*
X165530438Y-103381461D01*
X165583241Y-103335706D01*
X165634753Y-103324500D01*
X176601832Y-103324500D01*
X176609439Y-103324500D01*
X176609443Y-103324501D01*
X176700501Y-103324501D01*
X176767541Y-103344186D01*
X176813295Y-103396991D01*
X176813296Y-103397001D01*
X176824500Y-103448501D01*
X176824500Y-103786668D01*
X176824501Y-103786687D01*
X176834825Y-103887752D01*
X176871109Y-103997249D01*
X176889092Y-104051516D01*
X176979660Y-104198350D01*
X177101650Y-104320340D01*
X177248484Y-104410908D01*
X177412247Y-104465174D01*
X177513323Y-104475500D01*
X178211676Y-104475499D01*
X178211684Y-104475498D01*
X178211687Y-104475498D01*
X178267030Y-104469844D01*
X178312753Y-104465174D01*
X178476516Y-104410908D01*
X178623350Y-104320340D01*
X178745340Y-104198350D01*
X178745340Y-104198349D01*
X178750447Y-104193243D01*
X178752411Y-104195207D01*
X178799010Y-104162212D01*
X178839254Y-104155500D01*
X179417672Y-104155500D01*
X179452267Y-104160424D01*
X179597426Y-104202597D01*
X179597429Y-104202597D01*
X179597431Y-104202598D01*
X179634306Y-104205500D01*
X179634314Y-104205500D01*
X181115686Y-104205500D01*
X181115694Y-104205500D01*
X181152569Y-104202598D01*
X181152571Y-104202597D01*
X181152573Y-104202597D01*
X181194191Y-104190505D01*
X181310398Y-104156744D01*
X181451865Y-104073081D01*
X181568081Y-103956865D01*
X181651744Y-103815398D01*
X181697598Y-103657569D01*
X181700500Y-103620694D01*
X181700500Y-103189306D01*
X181697598Y-103152431D01*
X181687998Y-103119389D01*
X181651745Y-102994606D01*
X181651744Y-102994603D01*
X181651744Y-102994602D01*
X181568081Y-102853135D01*
X181568078Y-102853132D01*
X181563298Y-102846969D01*
X181565750Y-102845066D01*
X181539155Y-102796421D01*
X181544104Y-102726726D01*
X181564940Y-102694304D01*
X181563298Y-102693031D01*
X181568075Y-102686870D01*
X181568081Y-102686865D01*
X181651744Y-102545398D01*
X181697598Y-102387569D01*
X181700500Y-102350694D01*
X181700500Y-101919306D01*
X181697598Y-101882431D01*
X181693841Y-101869500D01*
X181651745Y-101724606D01*
X181651744Y-101724603D01*
X181651744Y-101724602D01*
X181568081Y-101583135D01*
X181568078Y-101583132D01*
X181563298Y-101576969D01*
X181565750Y-101575066D01*
X181539155Y-101526421D01*
X181544104Y-101456726D01*
X181564940Y-101424304D01*
X181563298Y-101423031D01*
X181568075Y-101416870D01*
X181568081Y-101416865D01*
X181651744Y-101275398D01*
X181697598Y-101117569D01*
X181700500Y-101080694D01*
X181700500Y-100649306D01*
X181697598Y-100612431D01*
X181687998Y-100579389D01*
X181651745Y-100454606D01*
X181651744Y-100454602D01*
X181651741Y-100454597D01*
X181648647Y-100447446D01*
X181651410Y-100446249D01*
X181637688Y-100392171D01*
X181659845Y-100325908D01*
X181714148Y-100282209D01*
X181755494Y-100265084D01*
X181878416Y-100182952D01*
X181982952Y-100078416D01*
X181982952Y-100078415D01*
X183174548Y-98886819D01*
X183235871Y-98853334D01*
X183262229Y-98850500D01*
X184328448Y-98850500D01*
X184395487Y-98870185D01*
X184441242Y-98922989D01*
X184451186Y-98992147D01*
X184435180Y-99037621D01*
X184348255Y-99184603D01*
X184348254Y-99184606D01*
X184302402Y-99342426D01*
X184302401Y-99342432D01*
X184299500Y-99379298D01*
X184299500Y-99810701D01*
X184302401Y-99847567D01*
X184302402Y-99847573D01*
X184348254Y-100005393D01*
X184348255Y-100005396D01*
X184431917Y-100146862D01*
X184431923Y-100146870D01*
X184548129Y-100263076D01*
X184548133Y-100263079D01*
X184548135Y-100263081D01*
X184689602Y-100346744D01*
X184731224Y-100358836D01*
X184847426Y-100392597D01*
X184847429Y-100392597D01*
X184847431Y-100392598D01*
X184884306Y-100395500D01*
X184884314Y-100395500D01*
X186365686Y-100395500D01*
X186365694Y-100395500D01*
X186402569Y-100392598D01*
X186402571Y-100392597D01*
X186402573Y-100392597D01*
X186444191Y-100380505D01*
X186560398Y-100346744D01*
X186701865Y-100263081D01*
X186818081Y-100146865D01*
X186901744Y-100005398D01*
X186947598Y-99847569D01*
X186950500Y-99810694D01*
X186950500Y-99379306D01*
X186947598Y-99342431D01*
X186901744Y-99184602D01*
X186818081Y-99043135D01*
X186818079Y-99043133D01*
X186818076Y-99043129D01*
X186814119Y-99039172D01*
X186780634Y-98977849D01*
X186785618Y-98908157D01*
X186827490Y-98852224D01*
X186877606Y-98829874D01*
X186918913Y-98821658D01*
X187055495Y-98765084D01*
X187120487Y-98721658D01*
X187120487Y-98721657D01*
X187120489Y-98721657D01*
X187149451Y-98702305D01*
X187178416Y-98682952D01*
X187737819Y-98123547D01*
X187799142Y-98090063D01*
X187868833Y-98095047D01*
X187924767Y-98136918D01*
X187949184Y-98202383D01*
X187949500Y-98211229D01*
X187949500Y-101037770D01*
X187929815Y-101104809D01*
X187913181Y-101125451D01*
X187690451Y-101348181D01*
X187629128Y-101381666D01*
X187602770Y-101384500D01*
X186582328Y-101384500D01*
X186547733Y-101379576D01*
X186402573Y-101337402D01*
X186402567Y-101337401D01*
X186365701Y-101334500D01*
X186365694Y-101334500D01*
X184884306Y-101334500D01*
X184884298Y-101334500D01*
X184847432Y-101337401D01*
X184847426Y-101337402D01*
X184689606Y-101383254D01*
X184689603Y-101383255D01*
X184548137Y-101466917D01*
X184548129Y-101466923D01*
X184431923Y-101583129D01*
X184431917Y-101583137D01*
X184348255Y-101724603D01*
X184348254Y-101724606D01*
X184302402Y-101882426D01*
X184302401Y-101882432D01*
X184299500Y-101919298D01*
X184299500Y-102350701D01*
X184302401Y-102387567D01*
X184302402Y-102387573D01*
X184348254Y-102545393D01*
X184348255Y-102545396D01*
X184431917Y-102686862D01*
X184436702Y-102693031D01*
X184434256Y-102694927D01*
X184460857Y-102743642D01*
X184455873Y-102813334D01*
X184435069Y-102845703D01*
X184436702Y-102846969D01*
X184431917Y-102853137D01*
X184348255Y-102994603D01*
X184348254Y-102994606D01*
X184302402Y-103152426D01*
X184302401Y-103152432D01*
X184299500Y-103189298D01*
X184299500Y-103620701D01*
X184302401Y-103657567D01*
X184302402Y-103657573D01*
X184348254Y-103815393D01*
X184348255Y-103815396D01*
X184431917Y-103956862D01*
X184431923Y-103956870D01*
X184548129Y-104073076D01*
X184548133Y-104073079D01*
X184548135Y-104073081D01*
X184689602Y-104156744D01*
X184702269Y-104160424D01*
X184847426Y-104202597D01*
X184847429Y-104202597D01*
X184847431Y-104202598D01*
X184884306Y-104205500D01*
X184884314Y-104205500D01*
X186365686Y-104205500D01*
X186365694Y-104205500D01*
X186402569Y-104202598D01*
X186402571Y-104202597D01*
X186402573Y-104202597D01*
X186547733Y-104160424D01*
X186582328Y-104155500D01*
X187968920Y-104155500D01*
X188066462Y-104136096D01*
X188113913Y-104126658D01*
X188250495Y-104070084D01*
X188299729Y-104037186D01*
X188373416Y-103987952D01*
X190154951Y-102206416D01*
X190237084Y-102083495D01*
X190293658Y-101946913D01*
X190322500Y-101801918D01*
X190322500Y-101654083D01*
X190322500Y-97724499D01*
X190342185Y-97657460D01*
X190394989Y-97611705D01*
X190446500Y-97600499D01*
X192570871Y-97600499D01*
X192570872Y-97600499D01*
X192630483Y-97594091D01*
X192765331Y-97543796D01*
X192778298Y-97534088D01*
X192843759Y-97509671D01*
X192912032Y-97524521D01*
X192961439Y-97573925D01*
X192976293Y-97642197D01*
X192975548Y-97649539D01*
X192972633Y-97671682D01*
X192972633Y-97828316D01*
X192989855Y-97959138D01*
X192989856Y-97959143D01*
X192989857Y-97959149D01*
X192995769Y-97981213D01*
X193030395Y-98110441D01*
X193080894Y-98232356D01*
X193080899Y-98232367D01*
X193159207Y-98367999D01*
X193159219Y-98368017D01*
X193227906Y-98457530D01*
X193239546Y-98472699D01*
X193350301Y-98583454D01*
X193357650Y-98589093D01*
X193454982Y-98663780D01*
X193454986Y-98663782D01*
X193454993Y-98663788D01*
X193455000Y-98663792D01*
X193590632Y-98742100D01*
X193590637Y-98742102D01*
X193590640Y-98742104D01*
X193712557Y-98792604D01*
X193863851Y-98833143D01*
X193940669Y-98843256D01*
X193994683Y-98850367D01*
X193994684Y-98850367D01*
X194151317Y-98850367D01*
X194181021Y-98846456D01*
X194282149Y-98833143D01*
X194433443Y-98792604D01*
X194555360Y-98742104D01*
X194691007Y-98663788D01*
X194795699Y-98583454D01*
X194906454Y-98472699D01*
X194986788Y-98368007D01*
X195065104Y-98232360D01*
X195115604Y-98110443D01*
X195156143Y-97959149D01*
X195173367Y-97828316D01*
X195173367Y-97671684D01*
X195171494Y-97657460D01*
X195164185Y-97601935D01*
X195156143Y-97540851D01*
X195115604Y-97389557D01*
X195065104Y-97267640D01*
X195065102Y-97267637D01*
X195065100Y-97267632D01*
X194986792Y-97132000D01*
X194986788Y-97131993D01*
X194953868Y-97089092D01*
X194906457Y-97027305D01*
X194906454Y-97027301D01*
X194795699Y-96916546D01*
X194795694Y-96916542D01*
X194691017Y-96836219D01*
X194690999Y-96836207D01*
X194555367Y-96757899D01*
X194555356Y-96757894D01*
X194433441Y-96707395D01*
X194357796Y-96687126D01*
X194282149Y-96666857D01*
X194282143Y-96666856D01*
X194282138Y-96666855D01*
X194151317Y-96649633D01*
X194151316Y-96649633D01*
X193994684Y-96649633D01*
X193994683Y-96649633D01*
X193863861Y-96666855D01*
X193863854Y-96666856D01*
X193863851Y-96666857D01*
X193838529Y-96673642D01*
X193712558Y-96707395D01*
X193590643Y-96757894D01*
X193590632Y-96757899D01*
X193455000Y-96836207D01*
X193454982Y-96836219D01*
X193350305Y-96916542D01*
X193350295Y-96916551D01*
X193236676Y-97030171D01*
X193235678Y-97029173D01*
X193181661Y-97063395D01*
X193111793Y-97062942D01*
X193053261Y-97024787D01*
X193024649Y-96961044D01*
X193023499Y-96944206D01*
X193023499Y-95852128D01*
X193017091Y-95792517D01*
X193014912Y-95786676D01*
X192966797Y-95657671D01*
X192966796Y-95657669D01*
X192906720Y-95577418D01*
X192904393Y-95574310D01*
X192879977Y-95508847D01*
X192894828Y-95440574D01*
X192904394Y-95425689D01*
X192915490Y-95410867D01*
X192966796Y-95342331D01*
X193017091Y-95207483D01*
X193023500Y-95147873D01*
X193023499Y-94055803D01*
X193043184Y-93988765D01*
X193095987Y-93943010D01*
X193165146Y-93933066D01*
X193228702Y-93962091D01*
X193236580Y-93969924D01*
X193236676Y-93969829D01*
X193239546Y-93972699D01*
X193350301Y-94083454D01*
X193350305Y-94083457D01*
X193454982Y-94163780D01*
X193454986Y-94163782D01*
X193454993Y-94163788D01*
X193455000Y-94163792D01*
X193590632Y-94242100D01*
X193590637Y-94242102D01*
X193590640Y-94242104D01*
X193712557Y-94292604D01*
X193863851Y-94333143D01*
X193956251Y-94345307D01*
X193994683Y-94350367D01*
X193994684Y-94350367D01*
X194151317Y-94350367D01*
X194181021Y-94346456D01*
X194282149Y-94333143D01*
X194433443Y-94292604D01*
X194555360Y-94242104D01*
X194691007Y-94163788D01*
X194795699Y-94083454D01*
X194906454Y-93972699D01*
X194986788Y-93868007D01*
X195065104Y-93732360D01*
X195115604Y-93610443D01*
X195156143Y-93459149D01*
X195173367Y-93328316D01*
X195173367Y-93171684D01*
X195156143Y-93040851D01*
X195115604Y-92889557D01*
X195065104Y-92767640D01*
X195065102Y-92767637D01*
X195065100Y-92767632D01*
X194986792Y-92632000D01*
X194986788Y-92631993D01*
X194986484Y-92631597D01*
X194906457Y-92527305D01*
X194906454Y-92527301D01*
X194795699Y-92416546D01*
X194773860Y-92399788D01*
X194691017Y-92336219D01*
X194690999Y-92336207D01*
X194555367Y-92257899D01*
X194555356Y-92257894D01*
X194433441Y-92207395D01*
X194357796Y-92187126D01*
X194282149Y-92166857D01*
X194282143Y-92166856D01*
X194282138Y-92166855D01*
X194151317Y-92149633D01*
X194151316Y-92149633D01*
X193994684Y-92149633D01*
X193994683Y-92149633D01*
X193863861Y-92166855D01*
X193863854Y-92166856D01*
X193863851Y-92166857D01*
X193831876Y-92175424D01*
X193712558Y-92207395D01*
X193590643Y-92257894D01*
X193590632Y-92257899D01*
X193455000Y-92336207D01*
X193454982Y-92336219D01*
X193350305Y-92416542D01*
X193350295Y-92416551D01*
X193236676Y-92530171D01*
X193235678Y-92529173D01*
X193181661Y-92563395D01*
X193111793Y-92562942D01*
X193053261Y-92524787D01*
X193024649Y-92461044D01*
X193023499Y-92444206D01*
X193023499Y-91352128D01*
X193017091Y-91292517D01*
X193008124Y-91268476D01*
X192966797Y-91157671D01*
X192966793Y-91157664D01*
X192880548Y-91042457D01*
X192880546Y-91042454D01*
X192880544Y-91042452D01*
X192880540Y-91042448D01*
X192866005Y-91031567D01*
X192846609Y-91013509D01*
X192825068Y-90988651D01*
X192716335Y-90894432D01*
X192716331Y-90894430D01*
X192585465Y-90834664D01*
X192585460Y-90834662D01*
X192585459Y-90834662D01*
X192518420Y-90814977D01*
X192518422Y-90814977D01*
X192518417Y-90814976D01*
X192470944Y-90808150D01*
X192376000Y-90794500D01*
X190033524Y-90794500D01*
X189901603Y-90812017D01*
X189860438Y-90823146D01*
X189839122Y-90828909D01*
X189839119Y-90828910D01*
X189839116Y-90828911D01*
X189839110Y-90828913D01*
X189716342Y-90880248D01*
X189716333Y-90880253D01*
X188818308Y-91404101D01*
X188719991Y-91478935D01*
X188719990Y-91478936D01*
X188678145Y-91519767D01*
X188676927Y-91520955D01*
X188657404Y-91545337D01*
X188648292Y-91555512D01*
X188592937Y-91610867D01*
X188570354Y-91628724D01*
X188548766Y-91642040D01*
X188522672Y-91654208D01*
X188494193Y-91663645D01*
X188467884Y-91669287D01*
X188467301Y-91669347D01*
X188454606Y-91669999D01*
X187945393Y-91669999D01*
X187932732Y-91669350D01*
X187932133Y-91669289D01*
X187905805Y-91663645D01*
X187877326Y-91654208D01*
X187851236Y-91642042D01*
X187829643Y-91628723D01*
X187807061Y-91610867D01*
X187789132Y-91592938D01*
X187771274Y-91570354D01*
X187750376Y-91536473D01*
X187741748Y-91519767D01*
X187723993Y-91477873D01*
X187705488Y-91442480D01*
X187661922Y-91373396D01*
X187267289Y-90847219D01*
X187009682Y-90503742D01*
X186987158Y-90475831D01*
X186975646Y-90462558D01*
X186951207Y-90436322D01*
X186641819Y-90126934D01*
X186608334Y-90065611D01*
X186605500Y-90039253D01*
X186605500Y-87924010D01*
X186605500Y-87924000D01*
X186593947Y-87816544D01*
X186582741Y-87765033D01*
X186559587Y-87695466D01*
X186548616Y-87662502D01*
X186548613Y-87662496D01*
X186499392Y-87585908D01*
X186470825Y-87541457D01*
X186470819Y-87541450D01*
X186468174Y-87537916D01*
X186469475Y-87536941D01*
X186464926Y-87526978D01*
X186453257Y-87513511D01*
X186450719Y-87495860D01*
X186443311Y-87479635D01*
X186445849Y-87461993D01*
X186443313Y-87444353D01*
X186450722Y-87428129D01*
X186453262Y-87410477D01*
X186464933Y-87397009D01*
X186472338Y-87380797D01*
X186487342Y-87371154D01*
X186499022Y-87357678D01*
X186516125Y-87352656D01*
X186531116Y-87343023D01*
X186566051Y-87338000D01*
X186592948Y-87338000D01*
X186659987Y-87357685D01*
X186680629Y-87374319D01*
X186801650Y-87495340D01*
X186948484Y-87585908D01*
X187112247Y-87640174D01*
X187213323Y-87650500D01*
X187786676Y-87650499D01*
X187786684Y-87650498D01*
X187786687Y-87650498D01*
X187842030Y-87644844D01*
X187887753Y-87640174D01*
X188051516Y-87585908D01*
X188198350Y-87495340D01*
X188320340Y-87373350D01*
X188410908Y-87226516D01*
X188465174Y-87062753D01*
X188475500Y-86961677D01*
X188475499Y-86288324D01*
X188474811Y-86281592D01*
X188465174Y-86187247D01*
X188461093Y-86174931D01*
X188410908Y-86023484D01*
X188320340Y-85876650D01*
X188198350Y-85754660D01*
X188051516Y-85664092D01*
X187887753Y-85609826D01*
X187887751Y-85609825D01*
X187786678Y-85599500D01*
X187213330Y-85599500D01*
X187213312Y-85599501D01*
X187112247Y-85609825D01*
X186948484Y-85664092D01*
X186948481Y-85664093D01*
X186801648Y-85754661D01*
X186755629Y-85800681D01*
X186694306Y-85834166D01*
X186667948Y-85837000D01*
X186332052Y-85837000D01*
X186265013Y-85817315D01*
X186244371Y-85800681D01*
X186198351Y-85754661D01*
X186198350Y-85754660D01*
X186051516Y-85664092D01*
X185887753Y-85609826D01*
X185887751Y-85609825D01*
X185786678Y-85599500D01*
X185213330Y-85599500D01*
X185213312Y-85599501D01*
X185112247Y-85609825D01*
X184948484Y-85664092D01*
X184948481Y-85664093D01*
X184801648Y-85754661D01*
X184679661Y-85876648D01*
X184589093Y-86023481D01*
X184589091Y-86023486D01*
X184579847Y-86051383D01*
X184534826Y-86187247D01*
X184534826Y-86187248D01*
X184534825Y-86187248D01*
X184524500Y-86288315D01*
X184524500Y-86810254D01*
X184504815Y-86877293D01*
X184452011Y-86923048D01*
X184382853Y-86932992D01*
X184319297Y-86903967D01*
X184312819Y-86897935D01*
X183593776Y-86178892D01*
X183593761Y-86178877D01*
X183593737Y-86178855D01*
X183553519Y-86142728D01*
X183553507Y-86142718D01*
X183532856Y-86126076D01*
X183488974Y-86094433D01*
X183358100Y-86034663D01*
X183291055Y-86014976D01*
X183228985Y-86006052D01*
X183148638Y-85994500D01*
X181624000Y-85994500D01*
X181623991Y-85994500D01*
X181623990Y-85994501D01*
X181516549Y-86006052D01*
X181516537Y-86006054D01*
X181465027Y-86017260D01*
X181362502Y-86051383D01*
X181362496Y-86051386D01*
X181241462Y-86129171D01*
X181241451Y-86129179D01*
X181188659Y-86174923D01*
X181094433Y-86283664D01*
X181094431Y-86283666D01*
X181040091Y-86402651D01*
X181026153Y-86418734D01*
X181016222Y-86437558D01*
X181003729Y-86444612D01*
X180994335Y-86455454D01*
X180973914Y-86461449D01*
X180955383Y-86471915D01*
X180941060Y-86471096D01*
X180927295Y-86475138D01*
X180906875Y-86469141D01*
X180885627Y-86467927D01*
X180864154Y-86456596D01*
X180860256Y-86455452D01*
X180854412Y-86451456D01*
X180801615Y-86413097D01*
X180758949Y-86357768D01*
X180750500Y-86312779D01*
X180750500Y-86223999D01*
X180740739Y-86174931D01*
X180740739Y-86174930D01*
X180721659Y-86079007D01*
X180667408Y-85948036D01*
X180665764Y-85943441D01*
X180582954Y-85819507D01*
X180582953Y-85819506D01*
X180582951Y-85819503D01*
X180478416Y-85714968D01*
X180362948Y-85599500D01*
X179180502Y-84417052D01*
X179180495Y-84417046D01*
X179106810Y-84367812D01*
X179106810Y-84367813D01*
X179057572Y-84334913D01*
X178920998Y-84278343D01*
X178920988Y-84278340D01*
X178776001Y-84249500D01*
X178775999Y-84249500D01*
X174926082Y-84249500D01*
X174926080Y-84249500D01*
X174781092Y-84278340D01*
X174781082Y-84278343D01*
X174644511Y-84334912D01*
X174644498Y-84334919D01*
X174521584Y-84417048D01*
X174521580Y-84417051D01*
X172916548Y-86022083D01*
X172896970Y-86051386D01*
X172896969Y-86051387D01*
X172834413Y-86145008D01*
X172777843Y-86281582D01*
X172777840Y-86281592D01*
X172749000Y-86426579D01*
X172749000Y-86577648D01*
X172729315Y-86644687D01*
X172676511Y-86690442D01*
X172638255Y-86700938D01*
X172592016Y-86705909D01*
X172457171Y-86756202D01*
X172457164Y-86756206D01*
X172341955Y-86842452D01*
X172341952Y-86842455D01*
X172255706Y-86957664D01*
X172255702Y-86957671D01*
X172216510Y-87062753D01*
X172205409Y-87092517D01*
X172200437Y-87138757D01*
X172173701Y-87203306D01*
X172116309Y-87243154D01*
X172077149Y-87249500D01*
X169625418Y-87249500D01*
X169558379Y-87229815D01*
X169525100Y-87198385D01*
X169491971Y-87152787D01*
X169491967Y-87152782D01*
X169347213Y-87008028D01*
X169181613Y-86887715D01*
X169181612Y-86887714D01*
X169181610Y-86887713D01*
X169124653Y-86858691D01*
X168999223Y-86794781D01*
X168804534Y-86731522D01*
X168621886Y-86702594D01*
X168602352Y-86699500D01*
X168397648Y-86699500D01*
X168378114Y-86702594D01*
X168195465Y-86731522D01*
X168000776Y-86794781D01*
X167818386Y-86887715D01*
X167652786Y-87008028D01*
X167508028Y-87152786D01*
X167387715Y-87318386D01*
X167294781Y-87500776D01*
X167231522Y-87695465D01*
X167199500Y-87897648D01*
X167199500Y-88102351D01*
X167231522Y-88304534D01*
X167294781Y-88499223D01*
X167342221Y-88592328D01*
X167374180Y-88655051D01*
X167387715Y-88681613D01*
X167508028Y-88847213D01*
X167573134Y-88912319D01*
X167606619Y-88973642D01*
X167601635Y-89043334D01*
X167573134Y-89087681D01*
X167508032Y-89152782D01*
X167508028Y-89152786D01*
X167387715Y-89318385D01*
X167380883Y-89331795D01*
X167332909Y-89382591D01*
X167270398Y-89399500D01*
X162691105Y-89399500D01*
X162691089Y-89399499D01*
X162683493Y-89399499D01*
X162525378Y-89399499D01*
X162466805Y-89415194D01*
X162372649Y-89440423D01*
X162372644Y-89440426D01*
X162235725Y-89519475D01*
X162235717Y-89519481D01*
X159704733Y-92050465D01*
X159684984Y-92084672D01*
X159676637Y-92099131D01*
X159625677Y-92187396D01*
X159584753Y-92340124D01*
X159584753Y-92340126D01*
X159584753Y-92508227D01*
X159584754Y-92508240D01*
X159584754Y-94857511D01*
X159584753Y-94857529D01*
X159584753Y-95023235D01*
X159584752Y-95023235D01*
X159200000Y-95023235D01*
X159200000Y-84124500D01*
X159219685Y-84057461D01*
X159272489Y-84011706D01*
X159324000Y-84000500D01*
X196375500Y-84000500D01*
X196442539Y-84020185D01*
G37*
%TD.AperFunction*%
%TD*%
%TA.AperFunction,Conductor*%
%TO.N,VBUS*%
G36*
X183215677Y-86519685D02*
G01*
X183236319Y-86536319D01*
X184500000Y-87800000D01*
X185200000Y-87800000D01*
X185976000Y-87800000D01*
X186043039Y-87819685D01*
X186088794Y-87872489D01*
X186100000Y-87924000D01*
X186100000Y-90300000D01*
X186593767Y-90793767D01*
X186605286Y-90807048D01*
X187257522Y-91676696D01*
X187276027Y-91712089D01*
X187289092Y-91751516D01*
X187379660Y-91898350D01*
X187501650Y-92020340D01*
X187648484Y-92110908D01*
X187812247Y-92165174D01*
X187913323Y-92175500D01*
X188486676Y-92175499D01*
X188486684Y-92175498D01*
X188486687Y-92175498D01*
X188542030Y-92169844D01*
X188587753Y-92165174D01*
X188751516Y-92110908D01*
X188898350Y-92020340D01*
X189020340Y-91898350D01*
X189029961Y-91882752D01*
X189073019Y-91840738D01*
X189971044Y-91316891D01*
X190033524Y-91300000D01*
X192376000Y-91300000D01*
X192443039Y-91319685D01*
X192488794Y-91372489D01*
X192500000Y-91424000D01*
X192500000Y-92570940D01*
X192480315Y-92637979D01*
X192427511Y-92683734D01*
X192371044Y-92694841D01*
X190000000Y-92600000D01*
X188935472Y-93567753D01*
X188872626Y-93598283D01*
X188852061Y-93600000D01*
X187547939Y-93600000D01*
X187480900Y-93580315D01*
X187464528Y-93567753D01*
X186400001Y-92600000D01*
X186400000Y-92600000D01*
X184834345Y-92600000D01*
X184770549Y-92582329D01*
X184360202Y-92336121D01*
X184312844Y-92284750D01*
X184300000Y-92229792D01*
X184300000Y-90799998D01*
X181533349Y-87835731D01*
X181501997Y-87773291D01*
X181500000Y-87751124D01*
X181500000Y-86624000D01*
X181519685Y-86556961D01*
X181572489Y-86511206D01*
X181624000Y-86500000D01*
X183148638Y-86500000D01*
X183215677Y-86519685D01*
G37*
%TD.AperFunction*%
%TD*%
M02*
