%TF.GenerationSoftware,KiCad,Pcbnew,9.0.2*%
%TF.CreationDate,2025-05-29T11:38:48+08:00*%
%TF.ProjectId,uart_tool,75617274-5f74-46f6-9f6c-2e6b69636164,rev?*%
%TF.SameCoordinates,Original*%
%TF.FileFunction,Profile,NP*%
%FSLAX46Y46*%
G04 Gerber Fmt 4.6, Leading zero omitted, Abs format (unit mm)*
G04 Created by KiCad (PCBNEW 9.0.2) date 2025-05-29 11:38:48*
%MOMM*%
%LPD*%
G01*
G04 APERTURE LIST*
%TA.AperFunction,Profile*%
%ADD10C,0.050000*%
%TD*%
%TA.AperFunction,Profile*%
%ADD11C,0.254000*%
%TD*%
%TA.AperFunction,Profile*%
%ADD12C,0.000000*%
%TD*%
G04 APERTURE END LIST*
D10*
X197000000Y-107000000D02*
X158500000Y-107000000D01*
X158500000Y-107000000D02*
X158500000Y-83500000D01*
X197000000Y-83500000D02*
X197000000Y-107000000D01*
X158500000Y-83500000D02*
X197000000Y-83500000D01*
D11*
%TO.C,USB1*%
X196991000Y-89531000D02*
X197753000Y-89531000D01*
X196991000Y-89912000D02*
X196991000Y-89531000D01*
X196991000Y-101088000D02*
X196991000Y-89912000D01*
X196991000Y-101469000D02*
X196991000Y-101088000D01*
X197753000Y-101469000D02*
X196991000Y-101469000D01*
D12*
%TA.AperFunction,Profile*%
G36*
X194302610Y-92695672D02*
G01*
X194438257Y-92773988D01*
X194549012Y-92884743D01*
X194627328Y-93020390D01*
X194667867Y-93171684D01*
X194667867Y-93328316D01*
X194627328Y-93479610D01*
X194549012Y-93615257D01*
X194438257Y-93726012D01*
X194302610Y-93804328D01*
X194151316Y-93844867D01*
X193994684Y-93844867D01*
X193843390Y-93804328D01*
X193707743Y-93726012D01*
X193596988Y-93615257D01*
X193518672Y-93479610D01*
X193478133Y-93328316D01*
X193478133Y-93171684D01*
X193518672Y-93020390D01*
X193596988Y-92884743D01*
X193707743Y-92773988D01*
X193843390Y-92695672D01*
X193994684Y-92655133D01*
X194151316Y-92655133D01*
X194302610Y-92695672D01*
G37*
%TD.AperFunction*%
%TA.AperFunction,Profile*%
G36*
X194302610Y-97195672D02*
G01*
X194438257Y-97273988D01*
X194549012Y-97384743D01*
X194627328Y-97520390D01*
X194667867Y-97671684D01*
X194667867Y-97828316D01*
X194627328Y-97979610D01*
X194549012Y-98115257D01*
X194438257Y-98226012D01*
X194302610Y-98304328D01*
X194151316Y-98344867D01*
X193994684Y-98344867D01*
X193843390Y-98304328D01*
X193707743Y-98226012D01*
X193596988Y-98115257D01*
X193518672Y-97979610D01*
X193478133Y-97828316D01*
X193478133Y-97671684D01*
X193518672Y-97520390D01*
X193596988Y-97384743D01*
X193707743Y-97273988D01*
X193843390Y-97195672D01*
X193994684Y-97155133D01*
X194151316Y-97155133D01*
X194302610Y-97195672D01*
G37*
%TD.AperFunction*%
%TD*%
M02*
